<?xml version="1.0" encoding="UTF-8"?>
<svg id="SVGDoc" width="16" height="20" xmlns="http://www.w3.org/2000/svg" version="1.1" xmlns:xlink="http://www.w3.org/1999/xlink" xmlns:avocode="https://avocode.com/" viewBox="0 0 16 20"><defs></defs><desc>Generated with Avocode.</desc><g><g><title>bag</title><path d="M15.99862,17.29393c0.00423,0.01692 0.00423,0.03262 0.00423,0.04954c0,1.46882 -1.34457,2.66297 -2.99984,2.66297h-9.99607c-1.65504,0 -2.99961,-1.19415 -2.99961,-2.66297c0,-0.01692 0.00401,-0.03262 0.00401,-0.04954l1.14441,-12.89843c0.02449,-0.28676 0.26161,-0.50344 0.54749,-0.50344h2.35405c0.03273,-2.15189 1.78997,-3.89055 3.94775,-3.89055c2.1579,0 3.91502,1.73867 3.94787,3.89055h2.35405c0.28187,0 0.52299,0.21668 0.54749,0.50344zM8.00504,1.10626c-1.54896,0 -2.8117,1.24409 -2.84443,2.78581h5.68874c-0.0325,-1.54172 -1.29547,-2.78581 -2.84431,-2.78581zM13.00301,18.90211c1.03409,0 1.87992,-0.68749 1.89629,-1.53407l-1.09921,-12.3672h-1.84719v1.67705c0,0.30689 -0.24536,0.55257 -0.55183,0.55257c-0.30647,0 -0.55172,-0.24568 -0.55172,-0.55257v-1.67705h-5.69263v1.67705c0,0.30689 -0.24525,0.55257 -0.55183,0.55257c-0.30647,0 -0.55172,-0.24568 -0.55172,-0.55257v-1.67705h-1.84719l-1.09509,12.3672c0.01637,0.84658 0.85796,1.53407 1.89606,1.53407z" fill="#29282d" fill-opacity="1"></path></g></g></svg>