<?xml version="1.0" encoding="UTF-8"?>
<svg id="SVGDoc" width="23" height="20" xmlns="http://www.w3.org/2000/svg" version="1.1" xmlns:xlink="http://www.w3.org/1999/xlink" xmlns:avocode="https://avocode.com/" viewBox="0 0 23 20"><defs></defs><desc>Generated with Avocode.</desc><g><g><title>love</title><path d="M21.32698,1.96371c1.08261,1.20865 1.67885,2.8273 1.67885,4.5575c0,1.88406 -0.74753,3.63561 -2.35233,5.51323c-1.4344,1.67866 -3.49789,3.40886 -5.8873,5.41214c-0.89058,0.7467 -1.81137,1.51876 -2.79167,2.36293l-0.02941,0.02457c-0.12714,0.10995 -0.28553,0.16472 -0.44403,0.16472c-0.1585,0 -0.31689,-0.05477 -0.44403,-0.16472l-0.02941,-0.02457c-0.9803,-0.84416 -1.90098,-1.61623 -2.79144,-2.36293c-2.38953,-2.00327 -4.45301,-3.73348 -5.88741,-5.41214c-1.60492,-1.87761 -2.35233,-3.62917 -2.35233,-5.51323c0,-1.73021 0.59612,-3.34885 1.67862,-4.5575c1.13503,-1.26705 2.70939,-1.96501 4.43321,-1.96501c2.42443,0 3.95931,1.42452 4.82014,2.61948c0.22327,0.31052 0.41313,0.62104 0.57266,0.91384c0.15953,-0.2928 0.3495,-0.60332 0.57278,-0.91384c0.86071,-1.19496 2.39571,-2.61948 4.82002,-2.61948c1.72394,0 3.2983,0.69756 4.4331,1.96501zM21.6576,6.52121c0,-1.4072 -0.47653,-2.71493 -1.34205,-3.68112c-0.87524,-0.97707 -2.09049,-1.51474 -3.42167,-1.51474c-1.84822,0 -3.0431,1.11964 -3.7199,2.05966c-0.60711,0.84295 -0.92388,1.69316 -1.03191,2.01898c-0.09041,0.27347 -0.34916,0.45793 -0.64098,0.45793c-0.29182,0 -0.55058,-0.18446 -0.64087,-0.45793c-0.10815,-0.32582 -0.42492,-1.17603 -1.03191,-2.01898c-0.67692,-0.94002 -1.87168,-2.05966 -3.72002,-2.05966c-1.33118,0 -2.54631,0.53767 -3.42167,1.51474c-0.8654,0.96619 -1.34205,2.27392 -1.34205,3.68112c0,3.40484 3.08945,5.99491 7.76596,9.91607c0.76767,0.64359 1.55766,1.30571 2.39056,2.01817c0.83302,-0.71246 1.623,-1.37498 2.39056,-2.01817c4.67651,-3.92116 7.76596,-6.51124 7.76596,-9.91607z" fill="#29282d" fill-opacity="1"></path></g></g></svg>