<?xml version="1.0" encoding="UTF-8"?>
<svg id="SVGDoc" width="19" height="20" xmlns="http://www.w3.org/2000/svg" version="1.1" xmlns:xlink="http://www.w3.org/1999/xlink" xmlns:avocode="https://avocode.com/" viewBox="0 0 19 20"><defs></defs><desc>Generated with Avocode.</desc><g><g><title>search</title><path d="M18.70865,18.21905c0.39619,0.42007 0.38452,1.08782 -0.0285,1.49057c-0.19432,0.18969 -0.44849,0.29481 -0.71663,0.29481c-0.2853,0 -0.54989,-0.11478 -0.74718,-0.32421l-4.71817,-4.99005c-1.33862,0.95894 -2.9068,1.46319 -4.55097,1.46319c-4.37885,0 -7.94186,-3.62393 -7.94186,-8.07833c0,-4.45319 3.563,-8.07672 7.94186,-8.07672c4.38091,0 7.94392,3.62353 7.94392,8.07672c0,1.90661 -0.65964,3.73791 -1.86356,5.19425zM7.9472,2.10588c-3.23582,0 -5.86945,2.67868 -5.86945,5.96914c0,3.29247 2.63363,5.97075 5.86945,5.97075c3.23742,0 5.87151,-2.67828 5.87151,-5.97075c0,-3.29046 -2.63409,-5.96914 -5.87151,-5.96914z" fill="#29282d" fill-opacity="1"></path></g></g></svg>