<?xml version="1.0" encoding="UTF-8"?>
<svg id="SVGDoc" width="60" height="60" xmlns="http://www.w3.org/2000/svg" version="1.1" xmlns:xlink="http://www.w3.org/1999/xlink" xmlns:avocode="https://avocode.com/" viewBox="0 0 60 60"><defs></defs><desc>Generated with Avocode.</desc><g><g><title>Icon</title><g><title>Icon_bg</title><path d="M-0.00004,-0.00008v0h60v0v59.99987v0h-60v0z" fill="#ffb534" fill-opacity="1"></path></g><g><title>icon</title><path d="M49.99897,31.81988v6.60226c0,0.34113 -0.28038,0.61862 -0.62634,0.61862h-2.04723c0.00023,0.01329 0.00114,0.02739 0.00114,0.04148c0,2.16115 -1.77956,3.91915 -3.96687,3.91915c-2.18719,0 -3.96675,-1.758 -3.96675,-3.91915c0,-0.0141 0.00092,-0.02819 0.00103,-0.04148h-14.11549c0.00011,0.01329 0.00103,0.02739 0.00103,0.04148c0,2.16115 -1.77956,3.91915 -3.96687,3.91915c-2.18719,0 -3.96675,-1.758 -3.96675,-3.91915c0,-0.0141 0.00092,-0.02819 0.00103,-0.04148h-3.38333c-0.71365,0 -1.29433,-0.57392 -1.29433,-1.27953v-1.36169h-2.04609c-0.34584,0 -0.62634,-0.27629 -0.62634,-0.61902c0,-0.34113 0.28049,-0.61862 0.62634,-0.61862h6.01284c0.34595,0 0.62634,0.27749 0.62634,0.61862c0,0.34274 -0.28038,0.61902 -0.62634,0.61902h-2.71408v1.36169c0,0.02336 0.01865,0.04148 0.04166,0.04148h3.60031c0.53799,-1.53447 2.01473,-2.64082 3.74874,-2.64082c1.73412,0 3.21087,1.10635 3.74886,2.64082h12.99534v-4.66222c0,-0.34153 0.28038,-0.61862 0.62634,-0.61862c0.34584,0 0.62634,0.27709 0.62634,0.61862v4.66222h0.30155c0.53787,-1.53447 2.01473,-2.64042 3.74874,-2.64042c1.73401,0 3.21075,1.10595 3.74874,2.64042h1.63776v-2.72298h-0.70988c-1.08204,0 -1.96243,-0.86994 -1.96243,-1.93923v-1.32061c0,-0.34153 0.28038,-0.61862 0.62634,-0.61862h1.94756c-0.26516,-0.81194 -1.03718,-1.40197 -1.9463,-1.40277c-0.00069,0 -0.00126,0 -0.00183,0c-0.00057,0 -7.38968,0 -7.39025,0v0.70119c0,0.34274 -0.28049,0.61983 -0.62634,0.61983c-0.34595,0 -0.62634,-0.27709 -0.62634,-0.61983v-11.22259c0,-0.02215 -0.01877,-0.04108 -0.04177,-0.04108h-24.05148c-0.023,0 -0.04166,0.01893 -0.04166,0.04108v11.22219c0,0.34274 -0.28049,0.61943 -0.62634,0.61943c-0.34595,0 -0.62634,-0.27669 -0.62634,-0.61943v-11.22219c0,-0.70481 0.58067,-1.27913 1.29433,-1.27913h24.05148c0.71377,0 1.29444,0.57432 1.29444,1.27913v1.36169h4.7184c1.45054,0 2.63065,1.16636 2.63065,2.59974v0.6597c0,0.29763 -0.21252,0.54572 -0.49576,0.60573l1.03592,4.09354c1.58329,0.23843 2.80025,1.59247 2.80025,3.22239zM39.3095,28.56124h6.58859l-1.02299,-4.044h-5.56561zM39.3095,21.87682v1.40237h6.09638v-0.04068c0,-0.75113 -0.61821,-1.36169 -1.37798,-1.36169zM24.02683,39.08224c0,-1.4793 -1.21765,-2.68271 -2.7142,-2.68271c-1.49643,0 -2.71408,1.20341 -2.71408,2.68271c0,1.47889 1.21765,2.6811 2.71408,2.6811c1.49654,0 2.7142,-1.2022 2.7142,-2.6811zM46.07399,39.08224c0,-1.4793 -1.21765,-2.68271 -2.7142,-2.68271c-1.49654,0 -2.71408,1.20341 -2.71408,2.68271c0,1.47889 1.21754,2.6811 2.71408,2.6811c1.49654,0 2.7142,-1.2022 2.7142,-2.6811zM48.7463,33.84208v-1.40318h-1.41964v0.70159c0,0.38664 0.31837,0.70159 0.70976,0.70159zM22.60708,39.08224c0,0.70521 -0.58056,1.27873 -1.29444,1.27873c-0.71377,0 -1.29444,-0.57351 -1.29444,-1.27873c0,-0.70602 0.58067,-1.27953 1.29444,-1.27953c0.71388,0 1.29444,0.57351 1.29444,1.27953zM44.65424,39.08224c0,0.70521 -0.58067,1.27873 -1.29444,1.27873c-0.71377,0 -1.29444,-0.57351 -1.29444,-1.27873c0,-0.70602 0.58067,-1.27953 1.29444,-1.27953c0.71377,0 1.29444,0.57351 1.29444,1.27953zM26.65749,35.16189h9.35326c0.34595,0 0.62634,0.27749 0.62634,0.61862c0,0.34274 -0.28038,0.61902 -0.62634,0.61902h-9.35326c-0.34595,0 -0.62634,-0.27629 -0.62634,-0.61902c0,-0.34113 0.28038,-0.61862 0.62634,-0.61862zM11.33305,33.14049c0,-0.34193 0.28038,-0.61862 0.62634,-0.61862h8.01716c0.34584,0 0.62634,0.27669 0.62634,0.61862c0,0.34153 -0.28049,0.61943 -0.62634,0.61943h-8.01716c-0.34595,0 -0.62634,-0.2779 -0.62634,-0.61943zM31.777,24.12053c0.24456,0.24205 0.24456,0.63433 0,0.87558l-6.01284,5.94094c-0.12234,0.12123 -0.28267,0.18164 -0.44289,0.18164c-0.16022,0 -0.32066,-0.06041 -0.44289,-0.18164l-3.34053,-3.30012c-0.24456,-0.24205 -0.24456,-0.63433 0,-0.87558c0.24456,-0.24205 0.64121,-0.24205 0.88577,0l2.89764,2.86354l5.56995,-5.50436c0.24456,-0.24125 0.64121,-0.24125 0.88577,0z" fill="#ffffff" fill-opacity="1"></path></g></g></g></svg>