<?xml version="1.0" encoding="UTF-8"?>
<svg id="SVGDoc" width="22" height="20" xmlns="http://www.w3.org/2000/svg" version="1.1" xmlns:xlink="http://www.w3.org/1999/xlink" xmlns:avocode="https://avocode.com/" viewBox="0 0 22 20"><defs></defs><desc>Generated with Avocode.</desc><g><g><title>cart_icon</title><path d="M17.43561,19.99718c-1.51279,0 -2.74361,-1.22154 -2.74361,-2.72419c0,-1.50225 1.23081,-2.72459 2.74361,-2.72459c1.51291,0 2.74361,1.22234 2.74361,2.72459c0,1.50265 -1.2307,2.72419 -2.74361,2.72419zM17.43561,16.18315c-0.60516,0 -1.09737,0.48894 -1.09737,1.08984c0,0.6005 0.49221,1.09024 1.09737,1.09024c0.60528,0 1.09749,-0.48974 1.09749,-1.09024c0,-0.6009 -0.49221,-1.08984 -1.09749,-1.08984zM19.19159,13.3768h-12.81269c-0.38086,0 -0.71194,-0.25897 -0.80063,-0.62748l-2.67506,-11.11546h-2.06646c-0.45467,0 -0.82317,-0.36529 -0.82317,-0.81718c0,-0.45148 0.3685,-0.81718 0.82317,-0.81718h2.71614c0.38086,0 0.71194,0.25977 0.80063,0.62708l0.74078,3.0778h16.10012c0.25314,0 0.49221,0.11599 0.64808,0.31374c0.15575,0.19856 0.21149,0.45672 0.15083,0.70038l-2.00283,8.03765c-0.09087,0.36408 -0.42057,0.62064 -0.79891,0.62064zM7.02858,11.74164h11.51905l1.59508,-6.40169h-14.65496zM7.47627,19.99718c-1.51279,0 -2.74361,-1.22154 -2.74361,-2.72419c0,-1.50225 1.23081,-2.72459 2.74361,-2.72459c1.51291,0 2.74361,1.22234 2.74361,2.72459c0,1.50265 -1.2307,2.72419 -2.74361,2.72419zM7.47627,16.18315c-0.60516,0 -1.09737,0.48894 -1.09737,1.08984c0,0.6005 0.49221,1.09024 1.09737,1.09024c0.60528,0 1.09749,-0.48974 1.09749,-1.09024c0,-0.6009 -0.49221,-1.08984 -1.09749,-1.08984z" fill="#29282d" fill-opacity="1"></path></g></g></svg>