<?xml version="1.0" encoding="UTF-8"?>
<svg id="SVGDoc" width="60" height="60" xmlns="http://www.w3.org/2000/svg" version="1.1" xmlns:xlink="http://www.w3.org/1999/xlink" xmlns:avocode="https://avocode.com/" viewBox="0 0 60 60"><defs></defs><desc>Generated with Avocode.</desc><g><g><title>Icon</title><g><title>Icon_bg</title><path d="M-0.00008,-0.00008v0h60v0v59.99987v0h-60v0z" fill="#34c3ff" fill-opacity="1"></path></g><g><title>Icon</title><path d="M41.69167,24.71942l-4.23317,-0.31213l0.10574,-1.46681l1.85108,0.13613c-2.0541,-2.28197 -4.96513,-3.60621 -8.0571,-3.60621c-6.01238,0 -10.90382,4.94696 -10.90382,11.02806c0,6.08191 4.89143,11.02927 10.90382,11.02927c3.63533,0 7.02118,-1.83009 9.05731,-4.89541l1.20735,0.8204c-2.30679,3.4729 -6.14399,5.54585 -10.26466,5.54585c-6.81438,0 -12.35836,-5.60666 -12.35836,-12.50011c0,-6.89224 5.54398,-12.50011 12.35836,-12.50011c3.47374,0 6.74595,1.47406 9.06979,4.01742l0.12131,-1.6851l1.45065,0.10713zM23.06652,30.77595c0.14786,0.07169 0.55332,0.24407 0.94769,0.24407c0.35614,0 0.60814,-0.10552 0.60814,-0.3661c0,-0.26581 -0.30132,-0.41 -0.6245,-0.41h-0.46017v-0.73703h0.44369c0.24101,0 0.55332,-0.07773 0.55332,-0.31012c0,-0.17157 -0.17532,-0.28797 -0.50949,-0.28797c-0.34515,0 -0.71766,0.15506 -0.86002,0.23279l-0.21915,-0.74307c0.252,-0.15466 0.7505,-0.29844 1.30932,-0.29844c0.82169,0 1.33118,0.38744 1.33118,0.92511c0,0.38785 -0.21366,0.68669 -0.6958,0.84174v0.01087c0.4438,0.05558 0.81631,0.37738 0.81631,0.84255c0,0.7036 -0.65735,1.1136 -1.61064,1.1136c-0.54783,0 -1.0025,-0.13291 -1.24352,-0.28756zM27.68444,31.83397c-1.06819,0 -1.49551,-0.88081 -1.49551,-1.86714c0,-0.9811 0.42732,-1.86674 1.50101,-1.86674c1.07368,0 1.50101,0.88564 1.50101,1.86674c0,0.98633 -0.42732,1.86714 -1.50101,1.86714zM27.69543,31.08043c0.27935,0 0.46566,-0.34918 0.46566,-1.1136c0,-0.76442 -0.18631,-1.10756 -0.47115,-1.10756c-0.28484,0 -0.47115,0.34314 -0.47115,1.10756c0,0.76442 0.18631,1.1136 0.47115,1.1136zM30.87791,28.08318c0.35603,-0.05558 0.82169,-0.08337 1.29833,-0.08337c0.77785,0 1.2545,0.11639 1.65985,0.37697c0.43282,0.27669 0.73414,0.73099 0.73414,1.41284c0,0.77569 -0.3178,1.24651 -0.67932,1.524c-0.45467,0.34878 -1.13949,0.4982 -1.91734,0.4982c-0.54783,0 -0.89298,-0.03303 -1.09566,-0.06605zM31.91326,30.99747c0.06031,0.01128 0.16434,0.01128 0.24101,0.01128c0.756,0.01128 1.30932,-0.34878 1.30932,-1.16354c0,-0.74267 -0.52036,-1.05278 -1.1887,-1.05278c-0.1918,0 -0.30682,0.01651 -0.36163,0.02739zM37.63771,31.09171c0,0.28797 0.01648,0.55378 0.04383,0.67581h-0.93132l-0.05482,-0.23239h-0.02186c-0.1973,0.22151 -0.48214,0.29884 -0.78884,0.29884c-0.59166,0 -0.94231,-0.41483 -0.94231,-0.85826c0,-0.73179 0.64648,-1.0693 1.66534,-1.0693v-0.01732c0,-0.09948 -0.06569,-0.22111 -0.47115,-0.22111c-0.30121,0 -0.64087,0.11599 -0.81619,0.21547l-0.18082,-0.65326c0.17532,-0.09465 0.57529,-0.25534 1.17783,-0.25534c0.92583,0 1.3203,0.47162 1.3203,1.2022zM36.6407,30.53753c-0.45479,0 -0.67383,0.11639 -0.67383,0.33791c0,0.15546 0.10403,0.24447 0.29583,0.24447c0.15884,0 0.32318,-0.12244 0.36701,-0.28273c0.01099,-0.04511 0.01099,-0.09988 0.01099,-0.15023zM39.08379,29.04132l0.35603,1.18046c0.04383,0.15546 0.09865,0.37657 0.13699,0.50948h0.02186c0.03845,-0.14378 0.08217,-0.36529 0.11501,-0.50948l0.26848,-1.18046h1.1285l-0.56969,1.55703c-0.4985,1.37941 -0.79433,1.7733 -1.09016,2.01737c-0.32867,0.27145 -0.67932,0.36006 -0.96966,0.38221l-0.19169,-0.87517c0.09304,-0.00604 0.20817,-0.03343 0.33417,-0.07733c0.13687,-0.04551 0.28484,-0.16634 0.35053,-0.24407c0.03284,-0.03866 0.05482,-0.08901 0.05482,-0.12807c0,-0.03303 -0.00549,-0.07692 -0.04383,-0.16029l-1.05732,-2.47167z" fill="#ffffff" fill-opacity="1"></path></g></g></g></svg>