<?xml version="1.0" encoding="UTF-8"?>
<svg id="SVGDoc" width="20" height="20" xmlns="http://www.w3.org/2000/svg" version="1.1" xmlns:xlink="http://www.w3.org/1999/xlink" xmlns:avocode="https://avocode.com/" viewBox="0 0 20 20"><defs></defs><desc>Generated with Avocode.</desc><g><g><title>heart_icon</title><path d="M17.77699,11.80285c-1.1071,1.35767 -2.81033,3.35288 -4.21555,4.96629c-2.68261,3.05606 -3.06587,3.22441 -3.44913,3.22441c-0.04257,0 -0.12772,0 -0.1704,0c-0.38315,0 -0.80887,-0.16835 -3.49159,-3.18252c-1.40511,-1.56991 -3.10844,-3.56513 -4.21555,-4.96549c-2.46975,-3.09794 -2.42718,-5.64452 -1.95877,-7.21484c0.68138,-2.37662 2.68261,-3.81926 4.17297,-4.37103c1.70322,-0.55217 3.74714,0 5.57819,1.56951c1.83094,-1.6114 3.87486,-2.20626 5.57819,-1.6114c1.49025,0.50827 3.49159,1.95172 4.17297,4.37103c0.46841,1.56991 0.46841,4.1169 -2.00134,7.21403zM18.20271,5.09749c-0.51098,-1.78216 -2.00123,-2.84341 -3.10833,-3.2683c-1.23482,-0.42369 -2.8957,0.21265 -4.42863,1.6553c-0.04246,0.08538 -0.1276,0.12767 -0.21286,0.16956c-0.34058,0.21265 -0.76641,0.17036 -1.06441,-0.12606c-1.53294,-1.48614 -3.1937,-2.12249 -4.42852,-1.6553c-1.1071,0.3814 -2.59747,1.44265 -3.10844,3.22481c-0.51098,1.74028 0.08514,3.6928 1.70322,5.68681c1.95877,2.4616 5.32276,6.32396 6.47243,7.3852c1.14979,-1.06124 4.51355,-4.9236 6.47243,-7.3852c1.61797,-1.99401 2.21409,-3.98922 1.70311,-5.68681z" fill="#29282d" fill-opacity="1"></path></g></g></svg>