<?xml version="1.0" encoding="UTF-8"?>
<svg id="SVGDoc" width="65" height="52" xmlns="http://www.w3.org/2000/svg" version="1.1" xmlns:xlink="http://www.w3.org/1999/xlink" xmlns:avocode="https://avocode.com/" viewBox="0 0 65 52"><defs></defs><desc>Generated with Avocode.</desc><g><g><title>Shape_2</title><path d="M1.74997,-0.00005c0.96645,0 1.75003,0.7765 1.75003,1.73424c0,0.95774 -0.78358,1.73424 -1.75003,1.73424c-0.96657,0 -1.75003,-0.7765 -1.75003,-1.73424c0,-0.95774 0.78346,-1.73424 1.75003,-1.73424zM14.04688,-0.00005c0.97504,0 1.76559,0.7765 1.76559,1.73424c0,0.95774 -0.79056,1.73424 -1.76559,1.73424c-0.97515,0 -1.76571,-0.7765 -1.76571,-1.73424c0,-0.95774 0.79056,-1.73424 1.76571,-1.73424zM26.34367,-0.00005c0.96657,0 1.75003,0.7765 1.75003,1.73424c0,0.95774 -0.78346,1.73424 -1.75003,1.73424c-0.96645,0 -1.74992,-0.7765 -1.74992,-1.73424c0,-0.95774 0.78346,-1.73424 1.74992,-1.73424zM38.65625,-0.00005c0.96645,0 1.74992,0.7765 1.74992,1.73424c0,0.95774 -0.78346,1.73424 -1.74992,1.73424c-0.96657,0 -1.75003,-0.7765 -1.75003,-1.73424c0,-0.95774 0.78346,-1.73424 1.75003,-1.73424zM50.95304,-0.00005c0.97515,0 1.76571,0.7765 1.76571,1.73424c0,0.95774 -0.79056,1.73424 -1.76571,1.73424c-0.97515,0 -1.76559,-0.7765 -1.76559,-1.73424c0,-0.95774 0.79044,-1.73424 1.76559,-1.73424zM63.24995,-0.00005c0.96645,0 1.75003,0.7765 1.75003,1.73424c0,0.95774 -0.78358,1.73424 -1.75003,1.73424c-0.96645,0 -1.75003,-0.7765 -1.75003,-1.73424c0,-0.95774 0.78358,-1.73424 1.75003,-1.73424zM1.74997,12.1247c0.96645,0 1.75003,0.7765 1.75003,1.73464c0,0.95774 -0.78358,1.73424 -1.75003,1.73424c-0.96657,0 -1.75003,-0.7765 -1.75003,-1.73424c0,-0.95814 0.78346,-1.73464 1.75003,-1.73464zM14.04688,12.1247c0.97504,0 1.76559,0.7765 1.76559,1.73464c0,0.95774 -0.79056,1.73424 -1.76559,1.73424c-0.97515,0 -1.76571,-0.7765 -1.76571,-1.73424c0,-0.95814 0.79056,-1.73464 1.76571,-1.73464zM26.34367,12.1247c0.96657,0 1.75003,0.7765 1.75003,1.73464c0,0.95774 -0.78346,1.73424 -1.75003,1.73424c-0.96645,0 -1.74992,-0.7765 -1.74992,-1.73424c0,-0.95814 0.78346,-1.73464 1.74992,-1.73464zM38.65625,12.1247c0.96645,0 1.74992,0.7765 1.74992,1.73464c0,0.95774 -0.78346,1.73424 -1.74992,1.73424c-0.96657,0 -1.75003,-0.7765 -1.75003,-1.73424c0,-0.95814 0.78346,-1.73464 1.75003,-1.73464zM50.95304,12.1247c0.97515,0 1.76571,0.7765 1.76571,1.73464c0,0.95774 -0.79056,1.73424 -1.76571,1.73424c-0.97515,0 -1.76559,-0.7765 -1.76559,-1.73424c0,-0.95814 0.79044,-1.73464 1.76559,-1.73464zM63.24995,12.1247c0.96645,0 1.75003,0.7765 1.75003,1.73464c0,0.95774 -0.78358,1.73424 -1.75003,1.73424c-0.96645,0 -1.75003,-0.7765 -1.75003,-1.73424c0,-0.95814 0.78358,-1.73464 1.75003,-1.73464zM1.74997,24.28086c0.96645,0 1.75003,0.76965 1.75003,1.71893c0,0.94928 -0.78358,1.71893 -1.75003,1.71893c-0.96657,0 -1.75003,-0.76965 -1.75003,-1.71893c0,-0.94928 0.78346,-1.71893 1.75003,-1.71893zM14.04688,24.28086c0.97504,0 1.76559,0.76965 1.76559,1.71893c0,0.94928 -0.79056,1.71893 -1.76559,1.71893c-0.97515,0 -1.76571,-0.76965 -1.76571,-1.71893c0,-0.94928 0.79056,-1.71893 1.76571,-1.71893zM26.34367,24.28086c0.96657,0 1.75003,0.76965 1.75003,1.71893c0,0.94928 -0.78346,1.71893 -1.75003,1.71893c-0.96645,0 -1.74992,-0.76965 -1.74992,-1.71893c0,-0.94928 0.78346,-1.71893 1.74992,-1.71893zM38.65625,24.28086c0.96645,0 1.74992,0.76965 1.74992,1.71893c0,0.94928 -0.78346,1.71893 -1.74992,1.71893c-0.96657,0 -1.75003,-0.76965 -1.75003,-1.71893c0,-0.94928 0.78346,-1.71893 1.75003,-1.71893zM50.95304,24.28086c0.97515,0 1.76571,0.76965 1.76571,1.71893c0,0.94928 -0.79056,1.71893 -1.76571,1.71893c-0.97515,0 -1.76559,-0.76965 -1.76559,-1.71893c0,-0.94928 0.79044,-1.71893 1.76559,-1.71893zM63.24995,24.28086c0.96645,0 1.75003,0.76965 1.75003,1.71893c0,0.94928 -0.78358,1.71893 -1.75003,1.71893c-0.96645,0 -1.75003,-0.76965 -1.75003,-1.71893c0,-0.94928 0.78358,-1.71893 1.75003,-1.71893zM1.74997,36.40601c0.96645,0 1.75003,0.7765 1.75003,1.73424c0,0.95814 -0.78358,1.73464 -1.75003,1.73464c-0.96657,0 -1.75003,-0.7765 -1.75003,-1.73464c0,-0.95774 0.78346,-1.73424 1.75003,-1.73424zM14.04688,36.40601c0.97504,0 1.76559,0.7765 1.76559,1.73424c0,0.95814 -0.79056,1.73464 -1.76559,1.73464c-0.97515,0 -1.76571,-0.7765 -1.76571,-1.73464c0,-0.95774 0.79056,-1.73424 1.76571,-1.73424zM26.34367,36.40601c0.96657,0 1.75003,0.7765 1.75003,1.73424c0,0.95814 -0.78346,1.73464 -1.75003,1.73464c-0.96645,0 -1.74992,-0.7765 -1.74992,-1.73464c0,-0.95774 0.78346,-1.73424 1.74992,-1.73424zM38.65625,36.40601c0.96645,0 1.74992,0.7765 1.74992,1.73424c0,0.95814 -0.78346,1.73464 -1.74992,1.73464c-0.96657,0 -1.75003,-0.7765 -1.75003,-1.73464c0,-0.95774 0.78346,-1.73424 1.75003,-1.73424zM50.95304,36.40601c0.97515,0 1.76571,0.7765 1.76571,1.73424c0,0.95814 -0.79056,1.73464 -1.76571,1.73464c-0.97515,0 -1.76559,-0.7765 -1.76559,-1.73464c0,-0.95774 0.79044,-1.73424 1.76559,-1.73424zM63.24995,36.40601c0.96645,0 1.75003,0.7765 1.75003,1.73424c0,0.95814 -0.78358,1.73464 -1.75003,1.73464c-0.96645,0 -1.75003,-0.7765 -1.75003,-1.73464c0,-0.95774 0.78358,-1.73424 1.75003,-1.73424zM1.74997,48.53116c0.96645,0 1.75003,0.7765 1.75003,1.73424c0,0.95774 -0.78358,1.73424 -1.75003,1.73424c-0.96657,0 -1.75003,-0.7765 -1.75003,-1.73424c0,-0.95774 0.78346,-1.73424 1.75003,-1.73424zM14.04688,48.53116c0.97504,0 1.76559,0.7765 1.76559,1.73424c0,0.95774 -0.79056,1.73424 -1.76559,1.73424c-0.97515,0 -1.76571,-0.7765 -1.76571,-1.73424c0,-0.95774 0.79056,-1.73424 1.76571,-1.73424zM26.34367,48.53116c0.96657,0 1.75003,0.7765 1.75003,1.73424c0,0.95774 -0.78346,1.73424 -1.75003,1.73424c-0.96645,0 -1.74992,-0.7765 -1.74992,-1.73424c0,-0.95774 0.78346,-1.73424 1.74992,-1.73424zM38.65625,48.53116c0.96645,0 1.74992,0.7765 1.74992,1.73424c0,0.95774 -0.78346,1.73424 -1.74992,1.73424c-0.96657,0 -1.75003,-0.7765 -1.75003,-1.73424c0,-0.95774 0.78346,-1.73424 1.75003,-1.73424zM50.95304,48.53116c0.97515,0 1.76571,0.7765 1.76571,1.73424c0,0.95774 -0.79056,1.73424 -1.76571,1.73424c-0.97515,0 -1.76559,-0.7765 -1.76559,-1.73424c0,-0.95774 0.79044,-1.73424 1.76559,-1.73424zM63.24995,48.53116c0.96645,0 1.75003,0.7765 1.75003,1.73424c0,0.95774 -0.78358,1.73424 -1.75003,1.73424c-0.96645,0 -1.75003,-0.7765 -1.75003,-1.73424c0,-0.95774 0.78358,-1.73424 1.75003,-1.73424z" fill="#fe3e57" fill-opacity="1"></path></g></g></svg>