<?xml version="1.0" encoding="UTF-8"?>
<svg id="SVGDoc" width="120" height="121" xmlns="http://www.w3.org/2000/svg" version="1.1" xmlns:xlink="http://www.w3.org/1999/xlink" xmlns:avocode="https://avocode.com/" viewBox="0 0 120 121"><defs></defs><desc>Generated with Avocode.</desc><g><g><title>Shape_1</title><path d="M59.98864,120.99402c-0.37422,0 -0.74799,-0.00362 -1.12049,-0.01007c-0.32444,-0.00685 -0.58182,-0.27629 -0.5761,-0.60291c0.00629,-0.32703 0.26539,-0.57593 0.59784,-0.58157c1.34811,0.02578 2.71854,0.00443 4.06666,-0.06283c0.32272,-0.02537 0.59898,0.2348 0.61558,0.56143c0.01614,0.32623 -0.23323,0.60372 -0.5571,0.62064c-1.00193,0.04954 -2.01988,0.07531 -3.02639,0.07531zM54.77906,120.76647c-0.01717,0 -0.03376,-0.0004 -0.0515,-0.00201c-1.37112,-0.11962 -2.75585,-0.28998 -4.11598,-0.50424c-0.31986,-0.05115 -0.53879,-0.35402 -0.48889,-0.67662c0.05035,-0.3222 0.34836,-0.54492 0.67108,-0.49296c1.33324,0.21064 2.69108,0.37697 4.03576,0.49498c0.32272,0.02819 0.56168,0.31495 0.53364,0.64037c-0.02632,0.3081 -0.28267,0.54049 -0.58411,0.54049zM67.07654,120.57275c-0.29343,0 -0.5468,-0.22111 -0.58239,-0.52196c-0.03834,-0.32542 0.19203,-0.61943 0.51361,-0.65769c1.34296,-0.1607 2.69451,-0.37093 4.01791,-0.62426c0.32158,-0.06243 0.62588,0.15063 0.68619,0.47122c0.06065,0.32099 -0.14843,0.6307 -0.46715,0.69152c-1.34983,0.25816 -2.72896,0.47242 -4.09824,0.63715c-0.02346,0.00242 -0.04704,0.00403 -0.06992,0.00403zM46.67149,119.48331c-0.04349,0 -0.08766,-0.00483 -0.13172,-0.0149c-1.34365,-0.31012 -2.69176,-0.67138 -4.00772,-1.07453c-0.31059,-0.09465 -0.48546,-0.4253 -0.39139,-0.73784c0.09396,-0.31294 0.42183,-0.48974 0.73185,-0.39429c1.29021,0.39469 2.61257,0.74911 3.92979,1.05359c0.31574,0.07249 0.51292,0.38986 0.44071,0.70843c-0.06191,0.27387 -0.30384,0.45954 -0.57152,0.45954zM75.13936,119.02941c-0.26012,0 -0.49747,-0.1756 -0.56683,-0.44182c-0.08251,-0.31616 0.10483,-0.63956 0.4184,-0.72213c1.30394,-0.34596 2.61372,-0.74307 3.89305,-1.18005c0.30888,-0.10351 0.64075,0.06082 0.74455,0.37053c0.10368,0.30931 -0.06088,0.64561 -0.36747,0.75032c-1.30508,0.44584 -2.64118,0.85061 -3.97213,1.20341c-0.0499,0.01329 -0.09968,0.01973 -0.14957,0.01973zM38.811,117.0785c-0.06992,0 -0.14042,-0.01329 -0.2092,-0.03987c-1.28735,-0.49458 -2.57469,-1.04231 -3.82599,-1.6271c-0.294,-0.13734 -0.42183,-0.48934 -0.28542,-0.78576c0.13584,-0.29642 0.48317,-0.42571 0.77957,-0.28797c1.22658,0.57311 2.48817,1.10998 3.75023,1.59569c0.3027,0.11639 0.45456,0.45833 0.33932,0.76361c-0.08938,0.23641 -0.31231,0.3814 -0.54852,0.3814zM82.90761,116.37611c-0.22923,0 -0.44701,-0.13693 -0.54165,-0.36408c-0.12497,-0.30085 0.01602,-0.64802 0.31528,-0.77408c1.2426,-0.52398 2.48417,-1.09991 3.69003,-1.71047c0.2924,-0.1462 0.64259,-0.0286 0.78815,0.2634c0.14557,0.29159 0.02861,0.64722 -0.26081,0.79382c-1.23058,0.62305 -2.49676,1.21026 -3.76465,1.74511c-0.07393,0.03141 -0.15072,0.04632 -0.22636,0.04632zM31.35632,113.59432c-0.09567,0 -0.1926,-0.02457 -0.28255,-0.0737c-1.20598,-0.67017 -2.40509,-1.3915 -3.56346,-2.14464c-0.27225,-0.17721 -0.35076,-0.54331 -0.17532,-0.81798c0.1759,-0.27508 0.53879,-0.35402 0.81161,-0.17681c1.13594,0.73824 2.31102,1.44627 3.49342,2.10235c0.2837,0.15747 0.3875,0.51793 0.23106,0.80469c-0.10723,0.19533 -0.30785,0.30609 -0.51476,0.30609zM90.23618,112.66317c-0.20061,0 -0.39597,-0.10351 -0.50549,-0.28998c-0.16514,-0.28072 -0.07278,-0.64399 0.20576,-0.81073c1.15952,-0.69192 2.31102,-1.43499 3.42236,-2.20867c0.26711,-0.18688 0.63286,-0.11801 0.81676,0.15063c0.18402,0.26944 0.11696,0.63795 -0.14957,0.82322c-1.13422,0.78898 -2.30873,1.54696 -3.49113,2.25338c-0.09407,0.05598 -0.19718,0.08216 -0.29869,0.08216zM24.45359,109.10649c-0.12211,0 -0.24536,-0.03746 -0.35076,-0.1176c-1.10516,-0.83248 -2.19406,-1.71289 -3.23616,-2.61746c-0.24593,-0.21346 -0.2734,-0.5864 -0.06191,-0.8345c0.21091,-0.2485 0.58296,-0.27508 0.82764,-0.06243c1.02139,0.88685 2.08923,1.75035 3.1731,2.56631c0.25967,0.19574 0.313,0.56707 0.11868,0.82805c-0.11524,0.15586 -0.29171,0.23762 -0.47058,0.23762zM96.98933,107.96672c-0.17315,0 -0.34389,-0.07612 -0.45959,-0.22312c-0.20187,-0.25575 -0.15999,-0.62789 0.09338,-0.83168c1.05228,-0.84456 2.09209,-1.74028 3.09105,-2.66257c0.23907,-0.22071 0.61054,-0.20419 0.82947,0.03665c0.21893,0.24125 0.2029,0.6154 -0.03616,0.83611c-1.0191,0.94082 -2.07996,1.85385 -3.15308,2.71614c-0.10826,0.08619 -0.23724,0.12848 -0.36507,0.12848zM18.22949,103.70805c-0.149,0 -0.298,-0.05719 -0.41267,-0.17077c-0.98007,-0.97667 -1.93851,-1.99884 -2.84866,-3.03874c-0.21446,-0.24447 -0.19146,-0.61902 0.05207,-0.8353c0.24193,-0.21547 0.6134,-0.19332 0.82832,0.05236c0.89241,1.01976 1.83243,2.0218 2.79362,2.97953c0.23037,0.22997 0.23266,0.60453 0.00458,0.83651c-0.11467,0.1176 -0.26596,0.1764 -0.41725,0.1764zM103.04257,102.37818c-0.14545,0 -0.29114,-0.05397 -0.40455,-0.16271c-0.23506,-0.22594 -0.24422,-0.59969 -0.02071,-0.83731c0.93029,-0.98512 1.83929,-2.01656 2.70138,-3.06572c0.20634,-0.25091 0.57667,-0.28676 0.82603,-0.07813c0.24982,0.20903 0.28427,0.58157 0.07725,0.83329c-0.87856,1.0693 -1.80542,2.12168 -2.75402,3.12694c-0.11524,0.12203 -0.27054,0.18365 -0.42538,0.18365zM12.80099,97.5025c-0.17658,0 -0.35088,-0.07974 -0.46658,-0.23158c-0.8345,-1.09789 -1.64452,-2.24291 -2.40738,-3.40242c-0.17944,-0.27186 -0.1054,-0.63956 0.16457,-0.8204c0.26985,-0.18124 0.63389,-0.10592 0.81333,0.16634c0.74856,1.13776 1.54289,2.25982 2.36149,3.33637c0.19718,0.25977 0.14843,0.6303 -0.10895,0.82966c-0.10654,0.08216 -0.23209,0.12203 -0.35648,0.12203zM108.2803,96.00387c-0.11868,0 -0.23781,-0.03665 -0.34161,-0.11116c-0.26367,-0.1905 -0.32387,-0.56063 -0.1347,-0.82604c0.79102,-1.11078 1.55102,-2.25861 2.25826,-3.41168c0.17086,-0.2787 0.53249,-0.36368 0.8083,-0.19211c0.27569,0.17197 0.36049,0.53646 0.1902,0.81476c-0.72155,1.17603 -1.49654,2.34641 -2.30301,3.47894c-0.11467,0.1615 -0.29457,0.24729 -0.47745,0.24729zM8.27004,90.60745c-0.20462,0 -0.40295,-0.10794 -0.51132,-0.30045c-0.67863,-1.20543 -1.32397,-2.45073 -1.91837,-3.70166c-0.14042,-0.29521 -0.01717,-0.64843 0.27512,-0.79019c0.29343,-0.14217 0.64316,-0.01611 0.78289,0.2783c0.58353,1.22637 1.21628,2.44791 1.88175,3.63038c0.15999,0.28394 0.06077,0.6448 -0.22121,0.8063c-0.09109,0.05236 -0.19089,0.07733 -0.28885,0.07733zM112.60148,88.96101c-0.09235,0 -0.18574,-0.02215 -0.27283,-0.06847c-0.28667,-0.15184 -0.39722,-0.51028 -0.24593,-0.79946c0.63114,-1.20905 1.22658,-2.45193 1.76994,-3.69441c0.13081,-0.29884 0.47813,-0.43376 0.77385,-0.30327c0.29686,0.1321 0.43098,0.48128 0.30029,0.78053c-0.55424,1.26785 -1.1618,2.53571 -1.80542,3.76892c-0.10494,0.20057 -0.30899,0.31616 -0.51991,0.31616zM4.72615,83.15297c-0.23335,0 -0.45456,-0.14177 -0.54577,-0.37415c-0.50606,-1.28799 -0.97492,-2.61303 -1.39332,-3.93808c-0.09808,-0.31173 0.07278,-0.6448 0.38109,-0.74347c0.31071,-0.09827 0.63915,0.0737 0.73769,0.38422c0.40993,1.29967 0.86952,2.59813 1.36597,3.86075c0.11913,0.30367 -0.02815,0.64802 -0.3297,0.76804c-0.07107,0.0286 -0.14385,0.04269 -0.21595,0.04269zM115.91557,81.38088c-0.06592,0 -0.13355,-0.01168 -0.1989,-0.03544c-0.30487,-0.11076 -0.46314,-0.44987 -0.35305,-0.75717c0.45628,-1.27752 0.87467,-2.59048 1.24317,-3.90304c0.08766,-0.31495 0.41325,-0.49578 0.72453,-0.40798c0.31174,0.0886 0.4929,0.41564 0.40466,0.73018c-0.37548,1.33914 -0.80246,2.67828 -1.26846,3.98157c-0.08595,0.24125 -0.31185,0.39187 -0.55195,0.39187zM2.23855,75.26635c-0.26424,0 -0.50446,-0.18083 -0.5698,-0.45188c-0.32433,-1.34558 -0.60585,-2.72298 -0.83736,-4.09434c-0.05447,-0.3222 0.16045,-0.62789 0.47974,-0.68346c0.32043,-0.05437 0.62244,0.16271 0.67692,0.4841c0.22751,1.34478 0.50377,2.69519 0.82134,4.0146c0.07679,0.31777 -0.11696,0.63715 -0.43156,0.71488c-0.04646,0.01128 -0.0935,0.01611 -0.13927,0.01611zM118.15266,73.41773c-0.0396,0 -0.08022,-0.00403 -0.12096,-0.01208c-0.31689,-0.06726 -0.52048,-0.3806 -0.45387,-0.70078c0.27626,-1.3331 0.50949,-2.69117 0.69408,-4.03796c0.04349,-0.323 0.33016,-0.55015 0.66147,-0.50545c0.32089,0.04471 0.54554,0.34274 0.50091,0.66735c-0.18745,1.37297 -0.42583,2.75883 -0.70793,4.1181c-0.05779,0.27951 -0.30144,0.47081 -0.57369,0.47081zM0.86057,67.10948c-0.298,0 -0.55309,-0.22755 -0.58342,-0.53284c-0.13699,-1.38223 -0.2282,-2.78501 -0.27054,-4.17127c-0.00973,-0.32663 0.24467,-0.59969 0.56854,-0.60936c0.32616,-0.01369 0.59441,0.24568 0.60528,0.57311c0.04131,1.35887 0.13012,2.73466 0.26482,4.08991c0.03204,0.32542 -0.2029,0.6154 -0.52563,0.64802c-0.02003,0.00161 -0.0396,0.00242 -0.05905,0.00242zM119.27373,65.22099c-0.01305,0 -0.02689,-0.0004 -0.04063,-0.00121c-0.3233,-0.02175 -0.5674,-0.30448 -0.54565,-0.6303c0.09167,-1.35565 0.13813,-2.73386 0.13813,-4.09636c0,-1.2453 -0.03891,-2.50711 -0.11581,-3.7512c-0.02003,-0.32623 0.22591,-0.60694 0.54909,-0.62708c0.33188,-0.02336 0.60242,0.22796 0.62256,0.55378c0.07851,1.26785 0.11799,2.55504 0.11799,3.8245c0,1.38908 -0.04749,2.79467 -0.14042,4.17731c-0.02117,0.31213 -0.27912,0.55056 -0.58525,0.55056zM0.60662,58.83864c-0.00744,0 -0.01488,0 -0.02232,-0.0004c-0.32387,-0.01168 -0.57655,-0.28635 -0.56454,-0.61298c0.05093,-1.39069 0.14957,-2.79346 0.294,-4.16925c0.03387,-0.32502 0.32616,-0.55982 0.64487,-0.5268c0.32261,0.03464 0.55653,0.32542 0.52219,0.65084c-0.14111,1.34921 -0.23792,2.7254 -0.28839,4.08911c-0.01144,0.31898 -0.27168,0.56949 -0.58582,0.56949zM118.89893,53.1768c-0.28999,0 -0.54222,-0.21668 -0.58125,-0.51391c-0.17647,-1.34961 -0.40226,-2.70969 -0.67051,-4.04279c-0.06477,-0.32059 0.14042,-0.63272 0.45788,-0.69796c0.32158,-0.06484 0.62771,0.14257 0.6918,0.46236c0.27466,1.35968 0.50446,2.74675 0.68447,4.12334c0.04234,0.32421 -0.18345,0.62144 -0.50503,0.66373c-0.02632,0.00362 -0.05219,0.00524 -0.07736,0.00524zM1.47042,50.61048c-0.03376,0 -0.06821,-0.00242 -0.10254,-0.00886c-0.31929,-0.05679 -0.53249,-0.36328 -0.47585,-0.68588c0.23907,-1.36773 0.52906,-2.74312 0.86094,-4.08951c0.07805,-0.31737 0.39722,-0.51189 0.71136,-0.43054c0.31471,0.07894 0.50617,0.39953 0.42824,0.71689c-0.32616,1.3194 -0.60997,2.66861 -0.84492,4.00896c-0.0499,0.28716 -0.29743,0.48894 -0.57724,0.48894zM117.26426,45.06907c-0.25738,0 -0.49347,-0.17238 -0.56522,-0.43457c-0.35877,-1.30893 -0.76916,-2.62431 -1.2196,-3.90948c-0.10838,-0.30851 0.05207,-0.64641 0.35763,-0.75556c0.30659,-0.10834 0.64075,0.05316 0.74856,0.36086c0.46017,1.31135 0.87868,2.65331 1.24489,3.98882c0.08652,0.31495 -0.09682,0.64077 -0.40924,0.72777c-0.05219,0.0141 -0.10483,0.02215 -0.15701,0.02215zM3.45368,42.58169c-0.0602,0 -0.12096,-0.01007 -0.18116,-0.0294c-0.30842,-0.10069 -0.47745,-0.43457 -0.3772,-0.74549c0.4248,-1.3186 0.90168,-2.64243 1.41804,-3.93485c0.12154,-0.30367 0.46371,-0.44866 0.76412,-0.32784c0.30029,0.12244 0.44586,0.46679 0.3249,0.77006c-0.50663,1.26664 -0.97435,2.56511 -1.39046,3.85753c-0.08022,0.25051 -0.31071,0.41 -0.55824,0.41zM114.5337,37.27185c-0.22705,0 -0.44312,-0.13371 -0.53947,-0.35684c-0.53364,-1.24208 -1.12049,-2.48657 -1.74351,-3.69804c-0.149,-0.28998 -0.03731,-0.64722 0.25108,-0.79784c0.28656,-0.14942 0.6419,-0.03786 0.7909,0.25333c0.6356,1.23563 1.23402,2.50469 1.77921,3.77214c0.12829,0.29964 -0.00813,0.64843 -0.30556,0.77811c-0.07565,0.03303 -0.1553,0.04914 -0.23266,0.04914zM6.52699,34.89725c-0.08606,0 -0.17372,-0.01933 -0.25623,-0.05961c-0.29171,-0.14298 -0.41267,-0.49739 -0.27111,-0.791c0.60299,-1.24852 1.25759,-2.49261 1.94481,-3.69683c0.16216,-0.28233 0.52048,-0.38019 0.80189,-0.21748c0.28084,0.16311 0.37766,0.52438 0.21549,0.80791c-0.67406,1.18086 -1.31538,2.40038 -1.90636,3.62433c-0.10208,0.21104 -0.31071,0.33267 -0.52849,0.33267zM110.75761,29.93257c-0.19775,0 -0.39093,-0.10109 -0.50159,-0.28394c-0.70152,-1.15951 -1.45351,-2.31057 -2.2348,-3.42215c-0.18745,-0.26702 -0.12554,-0.63594 0.13927,-0.82523c0.26482,-0.18889 0.63114,-0.12606 0.81791,0.14056c0.79731,1.13333 1.56429,2.30775 2.27955,3.49062c0.16914,0.2791 0.08137,0.64319 -0.19547,0.81355c-0.0951,0.0584 -0.20061,0.08659 -0.30487,0.08659zM10.62524,27.72027c-0.11238,0 -0.22648,-0.03262 -0.32673,-0.10069c-0.26882,-0.18204 -0.34046,-0.54975 -0.15987,-0.8208c0.7679,-1.15347 1.58592,-2.29406 2.43084,-3.38993c0.19878,-0.25776 0.5674,-0.30569 0.82363,-0.10431c0.25612,0.20057 0.30258,0.57231 0.10368,0.83047c-0.82878,1.07413 -1.63067,2.19297 -2.3838,3.32308c-0.11353,0.16996 -0.29869,0.26219 -0.48775,0.26219zM106.01346,23.18371c-0.17029,0 -0.33886,-0.0737 -0.45513,-0.21668c-0.85693,-1.05601 -1.75907,-2.09349 -2.68078,-3.08264c-0.22236,-0.23802 -0.21034,-0.61298 0.02575,-0.83611c0.23621,-0.22353 0.60825,-0.21225 0.82947,0.02618c0.94059,1.00889 1.86047,2.0665 2.73457,3.14305c0.20519,0.25293 0.168,0.62627 -0.08308,0.83248c-0.10883,0.09022 -0.24021,0.13371 -0.37079,0.13371zM15.66281,21.18205c-0.13927,0 -0.27912,-0.04954 -0.39093,-0.15063c-0.24193,-0.21748 -0.26253,-0.59164 -0.04692,-0.8357c0.91587,-1.03345 1.88107,-2.04959 2.86812,-3.02021c0.23209,-0.22755 0.60356,-0.22393 0.82993,0.01047c0.22648,0.23359 0.2219,0.60855 -0.0103,0.83651c-0.96806,0.95169 -1.9138,1.9485 -2.81193,2.96181c-0.11639,0.13049 -0.27683,0.19775 -0.43797,0.19775zM100.39166,17.15255c-0.14271,0 -0.28599,-0.05236 -0.39883,-0.15788c-0.9922,-0.92753 -2.02686,-1.83049 -3.07571,-2.68351c-0.25223,-0.2058 -0.29171,-0.57794 -0.08823,-0.83208c0.20405,-0.25413 0.57312,-0.29441 0.82535,-0.08941c1.06956,0.87074 2.1254,1.79183 3.13637,2.73748c0.23792,0.22191 0.25166,0.59687 0.03159,0.83611c-0.11581,0.12566 -0.27283,0.18929 -0.43053,0.18929zM21.54073,15.40422c-0.16685,0 -0.33188,-0.07129 -0.44769,-0.20903c-0.21034,-0.2489 -0.1799,-0.62265 0.06706,-0.83369c1.05011,-0.89934 2.14371,-1.7725 3.25058,-2.59491c0.2607,-0.19412 0.62817,-0.13814 0.82066,0.12485c0.1926,0.26299 0.1371,0.63352 -0.12371,0.82684c-1.08559,0.80711 -2.15801,1.66295 -3.18741,2.54497c-0.11066,0.09505 -0.24536,0.14096 -0.37949,0.14096zM94.00082,11.95306c-0.11639,0 -0.23323,-0.03423 -0.33588,-0.10713c-1.10447,-0.77851 -2.25254,-1.53004 -3.41217,-2.23284c-0.27786,-0.16795 -0.36793,-0.53163 -0.20107,-0.81194c0.16674,-0.27991 0.52723,-0.37174 0.80521,-0.20178c1.18366,0.71649 2.35462,1.48292 3.48095,2.27754c0.26539,0.18688 0.33016,0.5562 0.14442,0.82362c-0.1141,0.16432 -0.29629,0.25252 -0.48145,0.25252zM28.14488,10.49471c-0.19432,0 -0.38406,-0.09706 -0.49587,-0.27427c-0.17418,-0.27508 -0.09338,-0.64158 0.18002,-0.81718c1.1618,-0.74468 2.36378,-1.45714 3.57204,-2.11886c0.28713,-0.15546 0.64133,-0.04914 0.79617,0.23802c0.15472,0.28716 0.04921,0.64641 -0.23563,0.80228c-1.18526,0.64802 -2.36378,1.3476 -3.50212,2.07738c-0.09796,0.06283 -0.20691,0.09263 -0.3146,0.09263zM86.96053,7.68836c-0.09007,0 -0.18116,-0.02054 -0.26653,-0.06525c-1.2014,-0.61822 -2.44171,-1.2022 -3.6866,-1.73705c-0.29812,-0.12807 -0.43739,-0.47524 -0.31013,-0.7761c0.12726,-0.30085 0.47173,-0.44182 0.76973,-0.31253c1.27018,0.54452 2.53521,1.14058 3.76122,1.77209c0.28828,0.14861 0.40295,0.50505 0.25566,0.79583c-0.1038,0.205 -0.30956,0.323 -0.52334,0.323zM35.35306,6.54979c-0.22293,0 -0.43613,-0.12767 -0.53478,-0.34556c-0.13412,-0.29763 -0.00458,-0.64843 0.29057,-0.78375c1.2513,-0.57593 2.53864,-1.114 3.82599,-1.60052c0.3027,-0.11559 0.64201,0.04068 0.75542,0.34677c0.11353,0.30609 -0.04005,0.64681 -0.34389,0.762c-1.26217,0.47605 -2.52365,1.00365 -3.75023,1.5683c-0.07919,0.03625 -0.16171,0.05276 -0.24307,0.05276zM79.39977,4.44462c-0.06363,0 -0.1284,-0.01087 -0.19146,-0.03262c-1.27464,-0.44423 -2.58213,-0.84859 -3.88664,-1.20261c-0.313,-0.08498 -0.49862,-0.4096 -0.41439,-0.72535c0.08423,-0.31656 0.40981,-0.50263 0.71926,-0.41765c1.33095,0.36127 2.66476,0.77408 3.96469,1.22677c0.30659,0.10713 0.46944,0.44383 0.36335,0.75274c-0.08423,0.24447 -0.31116,0.39872 -0.55481,0.39872zM43.03365,3.64919c-0.25337,0 -0.4866,-0.16634 -0.56293,-0.42329c-0.09224,-0.31334 0.08492,-0.64279 0.39551,-0.73542c1.32065,-0.3955 2.67105,-0.74911 4.01402,-1.05077c0.31746,-0.06887 0.63046,0.13009 0.70095,0.44906c0.06992,0.31898 -0.12897,0.63513 -0.4454,0.70602c-1.3171,0.29562 -2.64061,0.64238 -3.93482,1.02983c-0.05619,0.01651 -0.11238,0.02457 -0.16731,0.02457zM71.47507,2.29314c-0.03719,0 -0.07507,-0.00322 -0.11353,-0.01087c-1.32454,-0.26138 -2.67551,-0.47967 -4.01447,-0.64802c-0.32158,-0.04027 -0.54966,-0.33589 -0.50949,-0.6601c0.04005,-0.32462 0.33302,-0.55579 0.65506,-0.51431c1.36528,0.17197 2.74326,0.39469 4.09481,0.66091c0.31815,0.06283 0.52563,0.37335 0.46303,0.69394c-0.05493,0.28233 -0.30029,0.47847 -0.57541,0.47847zM51.04371,1.84931c-0.28542,0 -0.53593,-0.21023 -0.5801,-0.50344c-0.04807,-0.323 0.17258,-0.62426 0.49301,-0.6734c1.35841,-0.20701 2.74372,-0.36851 4.11827,-0.48088c0.3233,-0.02537 0.60642,0.21587 0.63274,0.5421c0.02575,0.32542 -0.21492,0.61137 -0.53764,0.63715c-1.34811,0.11035 -2.70653,0.26904 -4.03805,0.47202c-0.02975,0.00403 -0.05905,0.00644 -0.08823,0.00644zM63.33089,1.26814c-0.01099,0 -0.02186,-0.0004 -0.0333,-0.00081c-1.34411,-0.07531 -2.71969,-0.10512 -4.06494,-0.08699c-0.00286,0 -0.00515,0 -0.00744,0c-0.32101,0 -0.58296,-0.26098 -0.58697,-0.58519c-0.00401,-0.32623 0.25566,-0.59486 0.57953,-0.59889c1.3773,-0.01812 2.77416,0.01249 4.14516,0.08941c0.3233,0.01772 0.57152,0.29723 0.55321,0.62345c-0.01728,0.31535 -0.27637,0.55902 -0.58525,0.55902zM59.98978,108.77302c-1.2569,0 -2.52537,-0.04994 -3.77151,-0.14741c-0.32261,-0.02537 -0.56454,-0.30971 -0.53925,-0.63554c0.02518,-0.32663 0.29171,-0.56908 0.63103,-0.54452c1.21513,0.09545 2.45258,0.14418 3.67859,0.14418l0.37434,-0.00201c0.00114,0 0.00286,0 0.00401,0c0.32215,0 0.58468,0.26259 0.58697,0.58761c0.00229,0.32663 -0.25864,0.59365 -0.58296,0.59607zM64.46683,108.56158c-0.29972,0 -0.55538,-0.22957 -0.58399,-0.53566c-0.02987,-0.32542 0.20691,-0.61379 0.52963,-0.6444c1.34411,-0.12767 2.69554,-0.31575 4.01676,-0.55902c0.32043,-0.05638 0.62473,0.15466 0.68264,0.47565c0.05848,0.3218 -0.15301,0.6299 -0.47173,0.6891c-1.35498,0.2489 -2.7404,0.44141 -4.1177,0.5719c-0.01888,0.00161 -0.03719,0.00242 -0.05562,0.00242zM52.18949,108.12741c-0.03147,0 -0.0642,-0.00242 -0.09693,-0.00846c-1.36471,-0.22755 -2.73285,-0.51874 -4.06666,-0.8647c-0.31403,-0.08216 -0.5032,-0.40436 -0.4224,-0.72092c0.08148,-0.31656 0.40695,-0.50545 0.7148,-0.4253c1.30108,0.3371 2.63546,0.62144 3.96687,0.84416c0.31929,0.05316 0.53593,0.35804 0.4826,0.68065c-0.04749,0.28917 -0.29629,0.49458 -0.57827,0.49458zM72.53777,107.07704c-0.25738,0 -0.49416,-0.17318 -0.56522,-0.43537c-0.08595,-0.31535 0.09808,-0.64118 0.41039,-0.72736c1.29948,-0.35965 2.59769,-0.78093 3.85918,-1.25335c0.3027,-0.11277 0.64201,0.04269 0.75439,0.34878c0.11284,0.30649 -0.04189,0.64641 -0.3463,0.76039c-1.29307,0.4841 -2.62447,0.91666 -3.95657,1.28557c-0.05219,0.0145 -0.10426,0.02135 -0.15587,0.02135zM44.24363,106.06735c-0.06489,0 -0.13081,-0.01087 -0.19547,-0.03383c-1.30177,-0.46316 -2.59998,-0.99076 -3.85815,-1.5675c-0.29514,-0.13532 -0.42526,-0.48571 -0.29114,-0.78294c0.13355,-0.29683 0.47974,-0.43014 0.77728,-0.29401c1.22715,0.56224 2.49275,1.07614 3.76282,1.52803c0.30556,0.10914 0.466,0.44665 0.35831,0.75475c-0.08549,0.24366 -0.31185,0.3955 -0.55367,0.3955zM80.22797,104.19981c-0.22007,0 -0.43041,-0.12485 -0.53078,-0.33871c-0.13927,-0.29521 -0.01431,-0.64762 0.27866,-0.78778c1.21399,-0.58076 2.41985,-1.22315 3.58463,-1.90983c0.27855,-0.16553 0.63847,-0.07088 0.80292,0.21144c0.16342,0.28233 0.06947,0.64399 -0.21034,0.80952c-1.19328,0.70481 -2.42958,1.3633 -3.67401,1.95816c-0.08137,0.03866 -0.16674,0.05719 -0.25108,0.05719zM36.7711,102.64278c-0.09739,0 -0.19661,-0.02457 -0.2877,-0.07652c-1.20197,-0.68427 -2.38964,-1.42976 -3.5297,-2.21713c-0.26711,-0.18486 -0.33531,-0.55257 -0.15232,-0.82241c0.18333,-0.26944 0.54794,-0.33831 0.81619,-0.15385c1.11191,0.76804 2.27028,1.49581 3.44238,2.16316c0.28267,0.16029 0.38235,0.52116 0.22305,0.8059c-0.1078,0.19292 -0.30727,0.30085 -0.51189,0.30085zM87.30672,100.02089c-0.18402,0 -0.36507,-0.08659 -0.47916,-0.2497c-0.18745,-0.26622 -0.12554,-0.63634 0.13927,-0.82483c1.09932,-0.78536 2.17747,-1.62952 3.20412,-2.5059c0.24754,-0.21185 0.61844,-0.18043 0.82706,0.06887c0.20977,0.2493 0.17876,0.62265 -0.06832,0.83369c-1.05228,0.89893 -2.15733,1.76323 -3.28423,2.56873c-0.10311,0.0737 -0.22121,0.10914 -0.33875,0.10914zM30.00077,97.96687c-0.13069,0 -0.26253,-0.0439 -0.37193,-0.13412c-1.06899,-0.88444 -2.11052,-1.82566 -3.09689,-2.79669c-0.23163,-0.22836 -0.23621,-0.60332 -0.00916,-0.83691c0.22636,-0.23359 0.59727,-0.23802 0.82993,-0.01007c0.96176,0.94807 1.978,1.86634 3.02113,2.72862c0.25051,0.20742 0.28667,0.57996 0.08148,0.83248c-0.11639,0.14298 -0.28496,0.21668 -0.45456,0.21668zM93.56583,94.67319c-0.14957,0 -0.29926,-0.05759 -0.41325,-0.17197c-0.23048,-0.22997 -0.23163,-0.60493 -0.00355,-0.83691c0.94803,-0.96257 1.86687,-1.98031 2.73067,-3.02384c0.20691,-0.25091 0.57667,-0.28555 0.82649,-0.07531c0.24879,0.20943 0.28255,0.58197 0.0745,0.83288c-0.88497,1.0701 -1.82671,2.11322 -2.79819,3.10036c-0.11467,0.11599 -0.26596,0.17479 -0.41668,0.17479zM24.13029,92.18662c-0.16445,0 -0.32833,-0.06927 -0.44472,-0.2058c-0.89939,-1.05278 -1.76537,-2.15954 -2.57412,-3.29046c-0.18917,-0.26461 -0.13012,-0.63513 0.13287,-0.82604c0.26367,-0.1909 0.63,-0.13089 0.81974,0.13412c0.78873,1.10313 1.63353,2.1829 2.51106,3.21071c0.21149,0.24809 0.18391,0.62104 -0.06191,0.83409c-0.11066,0.09666 -0.24708,0.14338 -0.38292,0.14338zM98.82119,88.32024c-0.1157,0 -0.23266,-0.03464 -0.33531,-0.10673c-0.26539,-0.18688 -0.33073,-0.55579 -0.14557,-0.82362c0.76973,-1.11441 1.50112,-2.27553 2.17289,-3.45357c0.16216,-0.28354 0.52048,-0.3806 0.80189,-0.21829c0.28084,0.16352 0.37777,0.52518 0.21606,0.80832c-0.68893,1.20744 -1.43864,2.39837 -2.22794,3.54016c-0.11398,0.16472 -0.29629,0.25373 -0.48203,0.25373zM19.33511,85.47643c-0.20004,0 -0.39494,-0.1031 -0.50491,-0.28877c-0.70621,-1.19455 -1.36986,-2.43542 -1.9717,-3.68837c-0.14111,-0.29401 -0.019,-0.64762 0.27283,-0.78979c0.29228,-0.14257 0.64362,-0.01933 0.78415,0.27427c0.58685,1.22154 1.23402,2.4326 1.92352,3.59816c0.1656,0.28072 0.0745,0.64359 -0.20405,0.81073c-0.09407,0.05679 -0.19775,0.08377 -0.29984,0.08377zM102.91199,81.14648c-0.08251,0 -0.16685,-0.01732 -0.24651,-0.05477c-0.294,-0.13774 -0.42183,-0.48934 -0.28542,-0.78576c0.56683,-1.2308 1.0873,-2.50268 1.54644,-3.781c0.11055,-0.3077 0.44815,-0.46638 0.75199,-0.35522c0.3043,0.11156 0.462,0.45068 0.35191,0.75797c-0.47115,1.31095 -1.00422,2.61505 -1.58535,3.87686c-0.09979,0.21547 -0.31128,0.34193 -0.53307,0.34193zM15.76134,78.03404c-0.23666,0 -0.45959,-0.14579 -0.5484,-0.38221c-0.49072,-1.30088 -0.93029,-2.64002 -1.30634,-3.97875c-0.08823,-0.31414 0.09293,-0.64158 0.40466,-0.73059c0.30727,-0.08579 0.63618,0.09384 0.72453,0.40839c0.36678,1.30571 0.79559,2.61142 1.27419,3.88048c0.11513,0.30569 -0.03674,0.64722 -0.33989,0.76361c-0.06889,0.02658 -0.13927,0.03907 -0.20874,0.03907zM105.70618,73.36779c-0.0499,0 -0.10082,-0.00644 -0.15129,-0.02014c-0.31357,-0.08377 -0.49976,-0.40798 -0.41668,-0.72374c0.34504,-1.30772 0.63732,-2.65089 0.86941,-3.99285c0.05619,-0.32139 0.35431,-0.53445 0.67921,-0.48128c0.31929,0.05638 0.53307,0.36328 0.47756,0.68467c-0.23792,1.37498 -0.53764,2.75238 -0.89138,4.09354c-0.06992,0.26501 -0.30716,0.4398 -0.56683,0.4398zM13.52597,70.07492c-0.27626,0 -0.52208,-0.19694 -0.57598,-0.48088c-0.25738,-1.3621 -0.45971,-2.75681 -0.6007,-4.14549c-0.03262,-0.32542 0.20176,-0.61621 0.52448,-0.64923c0.3146,-0.03705 0.61043,0.20299 0.64362,0.528c0.13767,1.35565 0.33474,2.71654 0.58582,4.04601c0.06077,0.32059 -0.14843,0.6303 -0.46658,0.69152c-0.03731,0.00644 -0.0745,0.01007 -0.11066,0.01007zM107.11507,65.21938c-0.01659,0 -0.03387,-0.0004 -0.05104,-0.00201c-0.32272,-0.02819 -0.56225,-0.31455 -0.53421,-0.63997c0.11467,-1.34679 0.17315,-2.72057 0.17315,-4.08427c0,-0.50424 -0.00801,-1.00607 -0.02357,-1.50709c-0.01087,-0.32623 0.24364,-0.6001 0.56751,-0.61016c0.33531,-0.01853 0.59555,0.24648 0.60528,0.57311c0.01659,0.5123 0.0246,1.02741 0.0246,1.54414c0,1.39754 -0.05962,2.80555 -0.17773,4.18577c-0.02632,0.30851 -0.28255,0.54049 -0.58399,0.54049zM12.69318,61.84838c-0.31975,0 -0.5817,-0.25977 -0.58697,-0.58278c-0.00389,-0.25655 -0.00572,-0.51391 -0.00618,-0.77086c0,-1.13656 0.03948,-2.286 0.11856,-3.41692c0.02243,-0.32663 0.30029,-0.57029 0.62588,-0.54975c0.32387,0.02296 0.56751,0.30609 0.54451,0.63191c-0.0761,1.10434 -0.11513,2.22519 -0.11513,3.33315c0.00057,0.25091 0.00229,0.50303 0.00629,0.75354c0.00515,0.32663 -0.25337,0.59567 -0.57781,0.60171c-0.00286,0 -0.00629,0 -0.00916,0zM106.96149,55.43179c-0.29354,0 -0.5468,-0.22151 -0.58239,-0.52196c-0.15873,-1.35283 -0.37766,-2.7101 -0.6506,-4.03474c-0.06592,-0.31978 0.13824,-0.63312 0.4557,-0.69957c0.31586,-0.06686 0.62759,0.13895 0.69408,0.45873c0.27924,1.35807 0.50388,2.74956 0.66662,4.13583c0.03788,0.32502 -0.19203,0.61943 -0.51407,0.65729c-0.023,0.00282 -0.04646,0.00443 -0.06935,0.00443zM13.26688,53.59767c-0.03033,0 -0.06123,-0.00242 -0.09224,-0.00725c-0.31975,-0.05115 -0.53879,-0.35402 -0.48775,-0.67662c0.21492,-1.37498 0.4929,-2.75681 0.82535,-4.10763c0.07793,-0.31737 0.39494,-0.51028 0.71136,-0.43175c0.3146,0.07934 0.50606,0.40033 0.42812,0.7173c-0.32444,1.31739 -0.59555,2.66539 -0.80589,4.00614c-0.04532,0.29159 -0.29514,0.49981 -0.57896,0.49981zM105.29294,47.33372c-0.2528,0 -0.48546,-0.16553 -0.56225,-0.42087c-0.38807,-1.30128 -0.83748,-2.60014 -1.33553,-3.85994c-0.12039,-0.30367 0.02632,-0.64762 0.32787,-0.76885c0.29858,-0.12163 0.6419,0.02618 0.76229,0.33025c0.51121,1.29202 0.97206,2.6235 1.36986,3.95741c0.09281,0.31294 -0.08308,0.64359 -0.39322,0.73663c-0.05608,0.01732 -0.11341,0.02537 -0.16903,0.02537zM15.24613,45.5721c-0.06306,0 -0.12783,-0.01047 -0.19089,-0.03222c-0.3067,-0.10633 -0.46944,-0.44302 -0.36392,-0.75193c0.44815,-1.31538 0.96062,-2.62834 1.52287,-3.90263c0.13184,-0.29763 0.47974,-0.43295 0.77488,-0.30005c0.2964,0.13291 0.42938,0.48209 0.29812,0.78133c-0.54909,1.24328 -1.04897,2.52322 -1.48624,3.80557c-0.08366,0.24527 -0.31128,0.39993 -0.55481,0.39993zM102.25568,39.6529c-0.21492,0 -0.42183,-0.11921 -0.52505,-0.32582c-0.60413,-1.20945 -1.27018,-2.40924 -1.97971,-3.56674c-0.17029,-0.2779 -0.08537,-0.64238 0.19032,-0.81436c0.27569,-0.17077 0.63732,-0.08619 0.80818,0.19211c0.72739,1.18609 1.41003,2.41649 2.03018,3.65655c0.14557,0.29199 0.02918,0.64762 -0.26024,0.79462c-0.0848,0.0435 -0.17487,0.06363 -0.26367,0.06363zM18.58197,38.01049c-0.09624,0 -0.19375,-0.02336 -0.2837,-0.07411c-0.2837,-0.15788 -0.38635,-0.51834 -0.22923,-0.80429c0.66822,-1.2159 1.39847,-2.41851 2.17117,-3.5752c0.18047,-0.27065 0.54508,-0.34193 0.81448,-0.16029c0.26882,0.18285 0.33989,0.55015 0.15873,0.8212c-0.75314,1.1285 -1.46564,2.30211 -2.11727,3.4878c-0.10723,0.19453 -0.30785,0.30488 -0.51418,0.30488zM97.94194,32.61809c-0.17944,0 -0.35591,-0.08216 -0.47115,-0.23802c-0.80303,-1.08621 -1.66454,-2.15309 -2.56096,-3.17003c-0.21549,-0.24447 -0.19375,-0.61822 0.04875,-0.8353c0.24193,-0.21708 0.61272,-0.19614 0.82821,0.04914c0.91942,1.04272 1.80267,2.13578 2.62516,3.24938c0.19375,0.26259 0.13985,0.63232 -0.11982,0.82845c-0.1054,0.07854 -0.22865,0.11639 -0.35019,0.11639zM23.16567,31.14846c-0.12955,0 -0.25967,-0.0435 -0.36804,-0.1317c-0.25211,-0.2054 -0.29171,-0.57794 -0.08823,-0.83248c0.86666,-1.08178 1.79123,-2.139 2.74841,-3.14426c0.22522,-0.23561 0.59658,-0.24286 0.82993,-0.01651c0.2338,0.22634 0.24124,0.6005 0.01717,0.83651c-0.93487,0.98029 -1.83701,2.01294 -2.68181,3.06814c-0.11639,0.14499 -0.28599,0.2203 -0.45742,0.2203zM92.48986,26.43631c-0.14488,0 -0.28999,-0.05397 -0.40352,-0.1615c-0.97778,-0.93357 -2.0089,-1.83533 -3.06416,-2.67989c-0.25383,-0.20299 -0.29629,-0.57553 -0.09453,-0.83208c0.20119,-0.25494 0.57095,-0.29844 0.82478,-0.09505c1.08158,0.86631 2.13799,1.79062 3.14095,2.74675c0.23563,0.22433 0.24593,0.59969 0.023,0.83651c-0.11581,0.12284 -0.27111,0.18526 -0.42652,0.18526zM28.8527,25.18335c-0.16331,0 -0.32558,-0.06847 -0.44186,-0.20137c-0.21332,-0.24648 -0.1886,-0.62023 0.0555,-0.8353c1.03809,-0.91625 2.1294,-1.79787 3.2436,-2.62109c0.26024,-0.19292 0.62828,-0.13613 0.8202,0.12727c0.19146,0.2642 0.1347,0.63393 -0.12669,0.82684c-1.08662,0.80348 -2.15103,1.66335 -3.16441,2.55745c-0.11124,0.09827 -0.24879,0.1462 -0.38635,0.1462zM86.06355,21.29039c-0.11124,0 -0.2235,-0.03182 -0.3233,-0.09827c-1.12289,-0.74952 -2.29271,-1.45916 -3.47626,-2.10758c-0.28496,-0.15586 -0.39036,-0.51471 -0.23563,-0.80228c0.1553,-0.28676 0.51121,-0.39349 0.79617,-0.23722c1.21342,0.66534 2.41241,1.3915 3.56346,2.15994c0.27042,0.18083 0.34447,0.54814 0.1656,0.8204c-0.11295,0.17197 -0.29984,0.26501 -0.49004,0.26501zM35.47059,20.29439c-0.19833,0 -0.39207,-0.10149 -0.50217,-0.28474c-0.16846,-0.27951 -0.08022,-0.64319 0.19661,-0.81275c1.1808,-0.72293 2.40623,-1.40116 3.64311,-2.01696c0.28942,-0.14499 0.64304,-0.02497 0.78587,0.26823c0.14385,0.2928 0.0246,0.64762 -0.26596,0.79261c-1.20655,0.6001 -2.40223,1.26302 -3.55305,1.96783c-0.09579,0.058 -0.20061,0.08579 -0.30441,0.08579zM78.85182,17.33983c-0.07793,0 -0.15759,-0.01571 -0.2338,-0.04954c-1.23413,-0.5417 -2.50774,-1.03587 -3.78639,-1.46641c-0.30727,-0.10431 -0.47344,-0.4398 -0.37033,-0.74911c0.10323,-0.31012 0.43682,-0.47605 0.74284,-0.37375c1.31149,0.44262 2.61772,0.94847 3.88264,1.50386c0.29697,0.13089 0.43339,0.47967 0.30384,0.77932c-0.09636,0.22272 -0.31185,0.35563 -0.53879,0.35563zM42.82433,16.633c-0.23495,0 -0.45616,-0.14298 -0.54668,-0.37697c-0.11753,-0.30448 0.03147,-0.64762 0.33348,-0.76643c1.28849,-0.50545 2.61314,-0.95975 3.93608,-1.34921c0.31403,-0.09303 0.63732,0.08941 0.72784,0.40315c0.09064,0.31294 -0.08766,0.64158 -0.39894,0.73341c-1.29078,0.37899 -2.58213,0.82161 -3.83846,1.31578c-0.07004,0.02739 -0.14214,0.04027 -0.21332,0.04027zM71.07156,14.71189c-0.04532,0 -0.09167,-0.00483 -0.13756,-0.01611c-1.30795,-0.31656 -2.6469,-0.57875 -3.97957,-0.77972c-0.32101,-0.04793 -0.54165,-0.34918 -0.49404,-0.67259c0.04807,-0.32341 0.34561,-0.54452 0.66719,-0.4982c1.367,0.20621 2.73972,0.47565 4.08039,0.80066c0.31528,0.07572 0.50949,0.3951 0.43385,0.71286c-0.06466,0.27105 -0.30544,0.45309 -0.57026,0.45309zM50.69867,14.31518c-0.27454,0 -0.51933,-0.19453 -0.57495,-0.47605c-0.06363,-0.32099 0.14282,-0.63232 0.46085,-0.69595c1.35384,-0.27145 2.73582,-0.48612 4.10854,-0.63876c0.32043,-0.03544 0.61214,0.19936 0.64774,0.52357c0.03548,0.32502 -0.19718,0.61701 -0.51933,0.65286c-1.33896,0.14861 -2.68764,0.35885 -4.00761,0.62345c-0.03902,0.00765 -0.07736,0.01087 -0.11524,0.01087zM62.95827,13.48874c-0.01202,0 -0.0246,-0.0004 -0.03662,-0.00121c-1.34525,-0.08337 -2.71053,-0.10914 -4.05464,-0.07773c-0.31586,0.00242 -0.59326,-0.25132 -0.6007,-0.57754c-0.00744,-0.32703 0.24937,-0.59768 0.57312,-0.60573c1.37627,-0.03262 2.77645,-0.00604 4.15443,0.07974c0.32375,0.02054 0.56969,0.30085 0.54966,0.62708c-0.01945,0.31374 -0.2774,0.55539 -0.58525,0.55539zM58.2227,96.81018c-0.00973,0 -0.01945,-0.0004 -0.02918,-0.00081c-1.38885,-0.06887 -2.78458,-0.2195 -4.14871,-0.44826c-0.31975,-0.05276 -0.53593,-0.35724 -0.4826,-0.68024c0.05276,-0.3226 0.35019,-0.5425 0.6752,-0.48652c1.3195,0.22111 2.66979,0.3665 4.01344,0.43255c0.32387,0.01611 0.57369,0.29401 0.55767,0.62023c-0.01556,0.31656 -0.27512,0.56304 -0.58582,0.56304zM62.32667,96.77755c-0.3067,0 -0.56511,-0.24044 -0.58525,-0.55297c-0.02117,-0.32623 0.22408,-0.60855 0.54737,-0.6295c1.34239,-0.0886 2.69051,-0.25575 4.00658,-0.4978c0.31975,-0.05719 0.62473,0.15466 0.68264,0.47605c0.05848,0.32139 -0.15312,0.6299 -0.47184,0.6883c-1.36002,0.25051 -2.75345,0.42329 -4.14047,0.51471c-0.01328,0.00081 -0.02644,0.00121 -0.03902,0.00121zM50.13699,95.45694c-0.05333,0 -0.10838,-0.00765 -0.16285,-0.02336c-1.33312,-0.38785 -2.65778,-0.85906 -3.93711,-1.40076c-0.29858,-0.12687 -0.439,-0.47363 -0.31345,-0.77489c0.12543,-0.30206 0.46989,-0.44302 0.76859,-0.31656c1.23688,0.52398 2.51793,0.97989 3.80756,1.35444c0.31128,0.09142 0.49118,0.41886 0.40123,0.733c-0.07393,0.25937 -0.30888,0.42812 -0.56396,0.42812zM70.38949,95.29222c-0.25166,0 -0.48374,-0.16311 -0.5611,-0.41846c-0.09521,-0.31213 0.07908,-0.64319 0.38921,-0.73904c1.28265,-0.3963 2.55627,-0.87316 3.78399,-1.41606c0.29926,-0.1317 0.64316,0.00483 0.77385,0.30408c0.13012,0.29884 -0.00515,0.64802 -0.30155,0.77932c-1.27007,0.56183 -2.58614,1.0544 -3.91251,1.46439c-0.05722,0.01732 -0.11513,0.02578 -0.17189,0.02578zM42.57508,92.2571c-0.0975,0 -0.19661,-0.02497 -0.2877,-0.07692c-1.20598,-0.68628 -2.38735,-1.45231 -3.5107,-2.27674c-0.26196,-0.19211 -0.31986,-0.56224 -0.12897,-0.82644c0.19146,-0.26461 0.55767,-0.3226 0.8202,-0.13049c1.08673,0.79825 2.22965,1.5389 3.39603,2.20303c0.28255,0.1615 0.38235,0.52196 0.22305,0.80671c-0.1078,0.19251 -0.30727,0.30085 -0.51189,0.30085zM77.89349,91.97196c-0.20176,0 -0.3978,-0.10471 -0.50732,-0.2928c-0.16331,-0.28233 -0.06992,-0.6444 0.20988,-0.80952c1.15665,-0.68266 2.28699,-1.44184 3.3593,-2.25579c0.26024,-0.19735 0.62759,-0.14378 0.82191,0.1168c0.19489,0.26058 0.14328,0.63191 -0.11581,0.82845c-1.10847,0.84134 -2.27657,1.6263 -3.47225,2.33111c-0.09281,0.05558 -0.19489,0.08176 -0.29572,0.08176zM35.94861,87.3915c-0.14214,0 -0.28484,-0.05236 -0.3978,-0.15707c-1.02081,-0.94928 -1.99688,-1.96622 -2.90028,-3.02464c-0.21149,-0.24729 -0.18402,-0.62104 0.06191,-0.83409c0.24422,-0.21305 0.61501,-0.18647 0.82764,0.06283c0.8741,1.02258 1.8187,2.0073 2.80632,2.92597c0.23838,0.22151 0.25326,0.59567 0.03376,0.8357c-0.11581,0.12687 -0.2734,0.19131 -0.43156,0.19131zM84.44032,87.00244c-0.1553,0 -0.31013,-0.06122 -0.42538,-0.18406c-0.2235,-0.23682 -0.21435,-0.61097 0.02071,-0.83651c0.97206,-0.93156 1.90063,-1.93118 2.761,-2.97067c0.20622,-0.25051 0.57655,-0.28474 0.82649,-0.07531c0.24868,0.20943 0.28255,0.58197 0.0745,0.83329c-0.8884,1.07413 -1.84845,2.10718 -2.85267,3.07056c-0.11353,0.10874 -0.25909,0.16271 -0.40466,0.16271zM30.6009,81.13037c-0.18803,0 -0.37319,-0.09102 -0.48672,-0.25977c-0.77888,-1.15911 -1.49815,-2.3742 -2.13673,-3.61185c-0.14957,-0.28998 -0.03777,-0.64681 0.24937,-0.79825c0.28828,-0.15023 0.64247,-0.03746 0.79147,0.25172c0.61855,1.19657 1.31378,2.37259 2.06806,3.49465c0.18173,0.26984 0.11181,0.63876 -0.15701,0.82161c-0.10094,0.06887 -0.21492,0.1019 -0.32845,0.1019zM89.69052,80.65593c-0.10998,0 -0.22179,-0.03141 -0.32101,-0.09666c-0.27111,-0.17922 -0.34676,-0.54613 -0.1696,-0.81959c0.7354,-1.13172 1.41289,-2.31943 2.01302,-3.52969c0.145,-0.29199 0.49747,-0.4108 0.78758,-0.2642c0.28999,0.1466 0.40741,0.50142 0.26241,0.79422c-0.62073,1.25053 -1.32111,2.47771 -2.08054,3.64769c-0.11295,0.17399 -0.30041,0.26823 -0.49187,0.26823zM26.8168,73.80115c-0.23678,0 -0.45971,-0.14499 -0.54852,-0.3814c-0.49244,-1.3045 -0.91427,-2.65452 -1.25473,-4.01299c-0.07908,-0.31656 0.11124,-0.63876 0.42526,-0.7185c0.31586,-0.07934 0.634,0.11196 0.71308,0.42893c0.32902,1.31417 0.73711,2.61988 1.21342,3.88209c0.11524,0.30488 -0.03674,0.64722 -0.33989,0.76321c-0.06878,0.02618 -0.13927,0.03866 -0.20863,0.03866zM93.35778,73.26227c-0.06649,0 -0.13424,-0.01168 -0.20016,-0.03544c-0.30487,-0.11116 -0.46188,-0.45068 -0.35191,-0.75797c0.45742,-1.27269 0.84492,-2.58605 1.1515,-3.90223c0.0745,-0.31938 0.38979,-0.51471 0.70564,-0.44101c0.31586,0.07451 0.51121,0.39268 0.43728,0.71125c-0.31689,1.36129 -0.71754,2.71936 -1.19041,4.03514c-0.08663,0.24044 -0.31185,0.39026 -0.55195,0.39026zM24.81236,65.78847c-0.28999,0 -0.54222,-0.21628 -0.58113,-0.51431c-0.18059,-1.38384 -0.28313,-2.79508 -0.30441,-4.19422c-0.00515,-0.32703 0.25394,-0.59567 0.57781,-0.6009c0.00343,0 0.00629,0 0.00916,0c0.32032,0 0.58182,0.25856 0.58685,0.58278c0.02071,1.35404 0.11925,2.71936 0.29411,4.05809c0.04246,0.32381 -0.18402,0.62144 -0.50491,0.66413c-0.02644,0.00282 -0.05219,0.00443 -0.07748,0.00443zM95.23427,65.21616c-0.02232,0 -0.04463,-0.00121 -0.06763,-0.00362c-0.32158,-0.03705 -0.55309,-0.33066 -0.51579,-0.65487c0.15244,-1.34276 0.2298,-2.7101 0.2298,-4.06454c0.00057,-0.381 -0.00572,-0.76079 -0.01717,-1.13736c-0.0103,-0.32743 0.24353,-0.6001 0.56797,-0.61057c0.31185,-0.01933 0.59498,0.24608 0.60471,0.57311c0.01259,0.39026 0.019,0.78174 0.01831,1.17562c0,1.39794 -0.08022,2.81119 -0.23781,4.19785c-0.03445,0.30206 -0.2877,0.52438 -0.58239,0.52438zM24.68282,57.52769c-0.01888,0 -0.03834,-0.00121 -0.05848,-0.00282c-0.32204,-0.03222 -0.55824,-0.3218 -0.52608,-0.64722c0.13641,-1.39512 0.35534,-2.79306 0.64934,-4.15556c0.06935,-0.31898 0.38235,-0.52196 0.69878,-0.45188c0.31689,0.06968 0.5175,0.38462 0.44884,0.7036c-0.28553,1.31779 -0.49644,2.67022 -0.62885,4.01983c-0.02975,0.30569 -0.28542,0.53404 -0.58353,0.53404zM95.08355,55.80634c-0.28656,0 -0.53707,-0.21104 -0.5801,-0.50464c-0.1965,-1.33793 -0.47287,-2.67828 -0.82191,-3.98439c-0.08423,-0.31616 0.10151,-0.64077 0.41451,-0.72535c0.31231,-0.08659 0.63503,0.1019 0.71926,0.41684c0.36049,1.35082 0.64648,2.73668 0.84938,4.11972c0.04761,0.323 -0.17418,0.62345 -0.4945,0.67178c-0.0293,0.00403 -0.05802,0.00604 -0.08663,0.00604zM26.42758,49.45218c-0.06306,0 -0.12783,-0.01047 -0.19089,-0.03222c-0.30659,-0.10633 -0.46944,-0.44343 -0.36392,-0.75233c0.44998,-1.31981 0.98305,-2.63035 1.58489,-3.89418c0.13973,-0.29401 0.48946,-0.42087 0.78289,-0.27749c0.29228,0.14136 0.41553,0.49458 0.27512,0.78979c-0.58182,1.22194 -1.0976,2.48939 -1.53328,3.76691c-0.08366,0.24447 -0.31116,0.39953 -0.55481,0.39953zM92.9514,47.8287c-0.23277,0 -0.45341,-0.14096 -0.54508,-0.37295c-0.49644,-1.25416 -1.07254,-2.49301 -1.71158,-3.68314c-0.15415,-0.28756 -0.04818,-0.64681 0.23735,-0.80187c0.28313,-0.15627 0.64075,-0.04914 0.79548,0.23802c0.66032,1.2304 1.25587,2.51194 1.76891,3.80839c0.12028,0.30367 -0.02644,0.64802 -0.3273,0.76885c-0.07164,0.029 -0.145,0.04269 -0.21778,0.04269zM29.97559,41.99972c-0.10723,0 -0.21561,-0.0294 -0.313,-0.09142c-0.27397,-0.17439 -0.35591,-0.54009 -0.18288,-0.81637c0.74169,-1.18287 1.5596,-2.33353 2.43027,-3.42135c0.20462,-0.25413 0.57369,-0.2936 0.82546,-0.0882c0.25211,0.2046 0.29171,0.57754 0.08812,0.83208c-0.84309,1.05198 -1.63399,2.16558 -2.35107,3.30939c-0.11169,0.17882 -0.30212,0.27588 -0.4969,0.27588zM89.05263,40.56392c-0.18517,0 -0.3669,-0.0878 -0.48088,-0.25212c-0.77156,-1.10756 -1.61407,-2.18129 -2.50534,-3.19138c-0.21561,-0.24407 -0.19375,-0.61822 0.04807,-0.8349c0.24136,-0.21748 0.6134,-0.19654 0.8289,0.04833c0.92102,1.04392 1.79226,2.15309 2.589,3.29891c0.18631,0.26662 0.12211,0.63634 -0.14328,0.82362c-0.10265,0.0733 -0.22018,0.10753 -0.33646,0.10753zM35.12486,35.56782c-0.15175,0 -0.30373,-0.05961 -0.41828,-0.17721c-0.22762,-0.23319 -0.22419,-0.60734 0.00687,-0.83691c0.99037,-0.98029 2.04678,-1.91265 3.1398,-2.77051c0.25566,-0.20097 0.62416,-0.15506 0.82363,0.1031c0.1989,0.25816 0.15301,0.6299 -0.10254,0.83047c-1.05755,0.83006 -2.08008,1.73222 -3.03783,2.6815c-0.11467,0.11317 -0.2631,0.16956 -0.41164,0.16956zM83.60455,34.39019c-0.13927,0 -0.27855,-0.04954 -0.39082,-0.15023c-1.0025,-0.90216 -2.06635,-1.75397 -3.1628,-2.53248c-0.26482,-0.18768 -0.32845,-0.5566 -0.14156,-0.82362c0.18631,-0.26743 0.55195,-0.33186 0.81791,-0.14338c1.13251,0.80429 2.23194,1.6847 3.2682,2.61625c0.24193,0.21789 0.2631,0.59164 0.04704,0.8357c-0.11581,0.1313 -0.27683,0.19775 -0.43797,0.19775zM41.59329,30.49279c-0.19833,0 -0.3915,-0.10028 -0.50217,-0.28474c-0.16846,-0.2783 -0.08022,-0.64319 0.19661,-0.81234c1.18641,-0.72656 2.42569,-1.38948 3.68431,-1.97226c0.29526,-0.13573 0.64316,-0.00443 0.77843,0.29159c0.13527,0.29683 0.00572,0.64843 -0.28885,0.78455c-1.21742,0.56264 -2.41711,1.20462 -3.56403,1.90742c-0.09521,0.0584 -0.20061,0.08579 -0.3043,0.08579zM76.89957,29.63252c-0.09453,0 -0.19032,-0.02296 -0.27969,-0.07209c-1.18069,-0.64641 -2.41024,-1.22919 -3.65456,-1.73182c-0.30098,-0.12203 -0.44712,-0.46679 -0.32616,-0.76965c0.11982,-0.30408 0.46143,-0.45068 0.76298,-0.32905c1.28666,0.51995 2.55741,1.12286 3.77838,1.79062c0.28484,0.15586 0.39024,0.51512 0.23552,0.80268c-0.10666,0.19735 -0.30842,0.30931 -0.51647,0.30931zM49.04168,27.0513c-0.24765,0 -0.47813,-0.15949 -0.55836,-0.41c-0.09968,-0.31052 0.06878,-0.6448 0.3772,-0.74508c1.31882,-0.43094 2.6778,-0.78818 4.03851,-1.06165c0.31643,-0.06283 0.62656,0.14499 0.69019,0.46517c0.06351,0.32019 -0.14271,0.63151 -0.46085,0.69555c-1.31607,0.26461 -2.63031,0.60976 -3.90564,1.02661c-0.0602,0.01973 -0.12154,0.0294 -0.18105,0.0294zM69.2896,26.55673c-0.05104,0 -0.10265,-0.00644 -0.15427,-0.02094c-1.2925,-0.35281 -2.62218,-0.63312 -3.95084,-0.83329c-0.32101,-0.04833 -0.54165,-0.34959 -0.49404,-0.67299c0.04807,-0.323 0.34676,-0.54452 0.66719,-0.4978c1.37386,0.20701 2.7483,0.49699 4.08497,0.86228c0.313,0.08538 0.49747,0.4104 0.41267,0.72616c-0.0705,0.26299 -0.30716,0.43658 -0.56568,0.43658zM57.07806,25.43386c-0.30258,0 -0.55939,-0.2344 -0.58456,-0.54371c-0.02586,-0.32582 0.21435,-0.61137 0.53764,-0.63755c0.97549,-0.08015 1.96701,-0.12082 2.9472,-0.12082c0.42412,-0.00886 0.81791,0.00604 1.22429,0.02054c0.32387,0.01128 0.57781,0.28434 0.56683,0.61137c-0.0103,0.32663 -0.27958,0.58479 -0.60574,0.5711c-0.39379,-0.01289 -0.77042,-0.00765 -1.18538,-0.01973c-0.9486,0 -1.90807,0.03947 -2.8521,0.1168c-0.01602,0.00121 -0.03216,0.00201 -0.04818,0.00201z" fill="#ffb534" fill-opacity="1"></path></g></g></svg>