<?xml version="1.0" encoding="UTF-8"?>
<svg id="SVGDoc" width="20" height="20" xmlns="http://www.w3.org/2000/svg" version="1.1" xmlns:xlink="http://www.w3.org/1999/xlink" xmlns:avocode="https://avocode.com/" viewBox="0 0 20 20"><defs></defs><desc>Generated with Avocode.</desc><g><g><title>search</title><path d="M19.89197,19.28552l-0.58903,0.58922c-0.16285,0.16311 -0.42664,0.16311 -0.58937,0l-5.80971,-5.80965c-1.36059,1.10152 -3.09013,1.76484 -4.97303,1.76484c-4.36535,0 -7.91679,-3.55144 -7.91679,-7.91643c0,-4.36579 3.55145,-7.91683 7.91679,-7.91683c4.36512,0 7.91656,3.55103 7.91656,7.91683c0,1.88285 -0.6633,3.61225 -1.76525,4.97314l5.80982,5.81005c0.16285,0.16271 0.16285,0.42611 0,0.58882zM14.18079,7.91351c0,-3.44632 -2.80357,-6.25026 -6.24996,-6.25026c-3.44662,0 -6.25008,2.80394 -6.25008,6.25026c0,3.44672 2.80346,6.24985 6.25008,6.24985c3.44639,0 6.24996,-2.80313 6.24996,-6.24985z" fill="#29282d" fill-opacity="1"></path></g></g></svg>