<?xml version="1.0" encoding="UTF-8"?>
<svg id="SVGDoc" width="60" height="60" xmlns="http://www.w3.org/2000/svg" version="1.1" xmlns:xlink="http://www.w3.org/1999/xlink" xmlns:avocode="https://avocode.com/" viewBox="0 0 60 60"><defs></defs><desc>Generated with Avocode.</desc><g><g><title>Icon</title><g><title>Icon_bg</title><path d="M0,-0.00008v0h60v0v59.99987v0h-60v0z" fill="#fe3e57" fill-opacity="1"></path></g><g><title>Icon</title><path d="M42.38388,29.67645c0.77625,0.69957 0.82077,1.71651 0.11078,2.53208l-4.14871,4.76572c-0.19077,0.2199 -0.41039,0.41443 -0.65231,0.57835c-0.00561,0.00362 -0.01122,0.00725 -0.01682,0.01087c-0.67543,0.42128 -1.52504,0.63513 -2.52537,0.63513h-6.15635c-0.424,0 -0.85247,0.02376 -1.27373,0.07249l-0.69626,0.07612l0.30418,0.28837c0.09682,0.09142 0.15347,0.21869 0.15598,0.34999c0.00252,0.13371 -0.05047,0.26501 -0.14591,0.36006l-3.49377,3.50029c-0.10014,0.10028 -0.23335,0.15103 -0.36644,0.15103c-0.1268,0 -0.2536,-0.04551 -0.35248,-0.13814l-5.96535,-5.54625c-0.09853,-0.09142 -0.15541,-0.21789 -0.15839,-0.35039c-0.00298,-0.13291 0.04852,-0.26219 0.14282,-0.35724l3.52695,-3.5756c0.09556,-0.09666 0.22888,-0.15264 0.36655,-0.15345c0.00126,0 0.00217,0 0.00343,0c0.13309,0 0.26241,0.05075 0.35786,0.14177l0.72556,0.68789c0.27832,-0.38221 0.71846,-0.90498 1.32225,-1.38626c1.48396,-1.18247 3.23971,-1.54535 5.0774,-1.04876c0.70484,0.1901 1.44905,0.28676 2.21214,0.28676h4.04629c0.58834,0 1.10836,0.22675 1.46404,0.63956c0.07324,0.08458 0.13836,0.1756 0.19558,0.27145l2.89032,-2.79226c0.42309,-0.41362 0.99106,-0.62386 1.59737,-0.59405c0.53387,0.02739 1.06327,0.24407 1.45237,0.59446zM26.25103,39.00572l-5.1963,-4.924l-2.81559,2.85428l5.22675,4.85956zM41.71543,31.56172c0.47928,-0.55015 0.19009,-0.95774 -0.02483,-1.15065c-0.41599,-0.37536 -1.15929,-0.49095 -1.63502,-0.02698l-3.32897,3.21716c-0.01431,0.48008 -0.18402,0.92954 -0.48168,1.27188c-0.35786,0.4108 -0.88234,0.63795 -1.47686,0.63795h-3.52226c-0.28233,0 -0.51132,-0.22353 -0.51132,-0.49981c0,-0.27508 0.229,-0.49901 0.51132,-0.49901h3.52226c0.29766,0 0.53238,-0.09626 0.69729,-0.28595c0.15221,-0.17439 0.23952,-0.42732 0.23952,-0.69313c0,-0.36247 -0.19398,-0.97747 -0.92068,-0.97747h-4.04629c-0.85533,0 -1.69132,-0.10874 -2.48497,-0.323c-1.52584,-0.41241 -2.92477,-0.12244 -4.15798,0.86027c-0.59315,0.47283 -1.00273,0.99398 -1.22543,1.31618l3.20503,3.03713l1.53076,-0.16835c0.45822,-0.05155 0.9264,-0.07813 1.38966,-0.07813h6.15646c0.79765,0 1.45912,-0.15868 1.96621,-0.47202c0.1664,-0.11398 0.31746,-0.2485 0.44907,-0.39953zM29.65588,34.89889c0.06454,0.26863 -0.10609,0.53727 -0.3812,0.6001c-0.03902,0.00926 -0.07851,0.01369 -0.11719,0.01369c-0.23186,0 -0.44197,-0.15546 -0.49736,-0.38583l-0.00481,-0.02054c-0.06454,-0.26823 0.1062,-0.53686 0.3812,-0.59929c0.275,-0.06323 0.55,0.10351 0.61443,0.37174zM20.45918,28.53264c-0.68253,0 -1.23814,-0.5421 -1.23814,-1.20865v-2.26828c0,-1.01895 0.58422,-1.905 1.45855,-2.34118c-0.42366,-0.4986 -0.67875,-1.13857 -0.67875,-1.83613c0,-1.58763 1.32317,-2.88086 2.94949,-2.88086c1.62655,0 2.94983,1.29323 2.94983,2.88086c0,0.69756 -0.25497,1.33753 -0.67863,1.83573c0.37788,0.18929 0.70141,0.46195 0.94723,0.79301c0.2457,-0.33106 0.56911,-0.60372 0.94711,-0.79261c-0.42343,-0.4986 -0.67886,-1.13857 -0.67886,-1.83613c0,-1.58763 1.32328,-2.88086 2.94983,-2.88086c1.62643,0 2.94971,1.29323 2.94971,2.88086c0,0.69756 -0.25497,1.33753 -0.67863,1.83573c0.378,0.18889 0.70152,0.46195 0.94711,0.79261c0.24582,-0.33066 0.56934,-0.60332 0.94711,-0.79261c-0.42366,-0.4982 -0.67863,-1.13817 -0.67863,-1.83573c0,-1.58763 1.32328,-2.88086 2.94971,-2.88086c1.62655,0 2.94983,1.29323 2.94983,2.88086c0,0.69756 -0.2552,1.33713 -0.67886,1.83573c0.87433,0.43658 1.45844,1.32222 1.45844,2.34118v2.26868c0,0.66655 -0.55538,1.20865 -1.23802,1.20865h-4.98287c-0.27122,0 -0.52242,-0.08498 -0.7267,-0.23118c-0.20428,0.1462 -0.45525,0.23118 -0.72647,0.23118h-4.98299c-0.27157,0 -0.52254,-0.08498 -0.72681,-0.23118c-0.20428,0.1462 -0.45536,0.23118 -0.7267,0.23118zM35.82344,18.99677c-1.0627,0 -1.92719,0.84416 -1.92696,1.88164c0,1.03748 0.86426,1.88164 1.92696,1.88164c1.06236,0 1.92696,-0.84416 1.92696,-1.88164c0,-1.03748 -0.8646,-1.88164 -1.92696,-1.88164zM34.4949,23.44875c-0.79456,0.13532 -1.37856,0.80429 -1.37833,1.60656v2.26868c0,0.11599 0.09647,0.21064 0.21515,0.21064h4.98287c0.11879,0 0.21538,-0.09465 0.21538,-0.21064v-2.26868c0,-0.80268 -0.58365,-1.47124 -1.37833,-1.60656c-0.3994,0.19735 -0.85064,0.31012 -1.32843,0.31012c-0.47768,0 -0.9288,-0.11277 -1.32832,-0.31012zM29.38694,18.99677c-1.06247,0 -1.92696,0.84416 -1.92696,1.88164c0,1.03748 0.86449,1.88164 1.92696,1.88164c1.06258,0 1.92696,-0.84416 1.92696,-1.88164c0,-1.03748 -0.86437,-1.88164 -1.92696,-1.88164zM28.05851,23.44875c-0.79445,0.13532 -1.37821,0.80429 -1.37821,1.60656v2.26868c0,0.11599 0.09659,0.21064 0.21538,0.21064h4.98287c0.11856,0 0.21515,-0.09465 0.21515,-0.21064v-2.26868c0,-0.80268 -0.58376,-1.47124 -1.37821,-1.60656c-0.39974,0.19735 -0.85075,0.31012 -1.32854,0.31012c-0.47768,0 -0.92892,-0.11277 -1.32843,-0.31012zM22.95055,18.99677c-1.06236,0 -1.92696,0.84416 -1.92696,1.88164c0,1.03748 0.8646,1.88164 1.92696,1.88164c1.06258,0 1.92696,-0.84416 1.92696,-1.88164c0,-1.03748 -0.86437,-1.88164 -1.92696,-1.88164zM20.2438,27.324c0,0.11599 0.09659,0.21064 0.21538,0.21064h4.98287c0.11879,0 0.21549,-0.09465 0.21549,-0.21064v-2.26868c0,-0.80268 -0.58376,-1.47124 -1.37856,-1.60656c-0.39963,0.19735 -0.85052,0.31012 -1.32843,0.31012c-0.47779,0 -0.92857,-0.11277 -1.3282,-0.31012c-0.79468,0.13532 -1.37856,0.80429 -1.37856,1.60656z" fill="#ffffff" fill-opacity="1"></path></g></g></g></svg>