<?xml version="1.0" encoding="UTF-8"?>
<svg id="SVGDoc" width="20" height="20" xmlns="http://www.w3.org/2000/svg" version="1.1" xmlns:xlink="http://www.w3.org/1999/xlink" xmlns:avocode="https://avocode.com/" viewBox="0 0 20 20"><defs></defs><desc>Generated with Avocode.</desc><g><g><title>user</title><path d="M19.99989,19.99839h-1.56258c0,-4.65215 -3.78502,-8.43678 -8.4375,-8.43678c-4.65248,0 -8.4375,3.78463 -8.4375,8.43678h-1.56246c0,-2.67063 1.04015,-5.18176 2.929,-7.07065c1.08913,-1.08943 2.38552,-1.89533 3.80001,-2.38347c-1.51497,-1.04352 -2.51026,-2.78944 -2.51026,-4.76411c0,-3.18816 2.59346,-5.78146 5.78121,-5.78146c3.18787,0 5.78133,2.5933 5.78133,5.78146c0,1.97468 -0.99529,3.72059 -2.51026,4.76411c1.41449,0.48813 2.71088,1.29403 3.80001,2.38347c1.88873,1.88889 2.929,4.40003 2.929,7.07065zM9.99981,9.99894c2.32624,0 4.21875,-1.89252 4.21875,-4.21879c0,-2.32668 -1.89251,-4.21879 -4.21875,-4.21879c-2.32613,0 -4.21875,1.89211 -4.21875,4.21879c0,2.32628 1.89262,4.21879 4.21875,4.21879z" fill="#29282d" fill-opacity="1"></path></g></g></svg>