<?xml version="1.0" encoding="UTF-8"?>
<svg id="SVGDoc" width="130" height="130" xmlns="http://www.w3.org/2000/svg" version="1.1" xmlns:xlink="http://www.w3.org/1999/xlink" xmlns:avocode="https://avocode.com/" viewBox="0 0 130 130"><defs></defs><desc>Generated with Avocode.</desc><g><g><title>play btn</title><g opacity="0.2"><title>Ellipse 7 copy 2</title><path d="M64.99992,-0.00014c35.89851,0 65.00004,29.1014 65.00004,65c0,35.89859 -29.10152,65 -65.00004,65c-35.89851,0 -64.99992,-29.1014 -64.99992,-65c0,-35.89859 29.10141,-65 64.99992,-65z" fill="#fe3e57" fill-opacity="1"></path></g><g opacity="0.6"><title>Ellipse 7 copy</title><path d="M64.99992,9.99971c30.37571,0 55.00008,24.62445 55.00008,55.00015c0,30.3757 -24.62437,54.99975 -55.00008,54.99975c-30.3756,0 -54.99996,-24.62405 -54.99996,-54.99975c0,-30.3757 24.62437,-55.00015 54.99996,-55.00015z" fill="#fe3e57" fill-opacity="1"></path></g><g><title>Ellipse 7</title><path d="M64.99992,19.99995c24.85279,0 45,20.1471 45,44.9999c0,24.85281 -20.14721,44.9999 -45,44.9999c-24.85279,0 -45,-20.1471 -45,-44.9999c0,-24.85281 20.14721,-44.9999 45,-44.9999z" fill="#fe3e57" fill-opacity="1"></path></g><g><title>Shape 23</title><path d="M71.81579,63.14158v0l-11.82392,-7.6051c-0.546,-0.3516 -1.09612,-0.53727 -1.55342,-0.53727c-0.88417,0 -1.43108,0.66695 -1.43108,1.78257v16.43698c0,1.11481 0.54623,1.78015 1.42822,1.78015c0.45811,0 0.99941,-0.18607 1.54667,-0.53847l11.82941,-7.6051c0.76069,-0.48974 1.18195,-1.14944 1.18195,-1.85707c0.00023,-0.70763 -0.41622,-1.36693 -1.17783,-1.85667" fill="#ffffff" fill-opacity="1"></path></g></g></g></svg>